<?xml version="1.0" encoding="UTF-8"?>
<svg xmlns="http://www.w3.org/2000/svg" width="1080" height="1920" viewBox="0 0 1080 1920">
  
    <defs>
      <linearGradient id="bg" x1="0" y1="0" x2="1" y2="1">
        <stop offset="0%" stop-color="#050816"/>
        <stop offset="48%" stop-color="#0f172a"/>
        <stop offset="100%" stop-color="#111827"/>
      </linearGradient>
      <radialGradient id="glow" cx="50%" cy="34%" r="60%">
        <stop offset="0%" stop-color="#2563eb" stop-opacity="0.38"/>
        <stop offset="45%" stop-color="#1d4ed8" stop-opacity="0.10"/>
        <stop offset="100%" stop-color="#020617" stop-opacity="0"/>
      </radialGradient>
      <filter id="soft">
        <feGaussianBlur stdDeviation="14"/>
      </filter>
    </defs>
    <rect x="0" y="0" width="1080" height="1920" rx="0" fill="url(#bg)" stroke="none" stroke-width="0" opacity="1"/>
    <rect x="0" y="0" width="1080" height="1920" rx="0" fill="url(#glow)" stroke="none" stroke-width="0" opacity="1"/>
    <line x1="80" y1="0" x2="80" y2="1920" stroke="#1d4ed8" stroke-width="1" stroke-linecap="round" opacity="0.08"/>
<line x1="180" y1="0" x2="180" y2="1920" stroke="#1d4ed8" stroke-width="1" stroke-linecap="round" opacity="0.08"/>
<line x1="280" y1="0" x2="280" y2="1920" stroke="#1d4ed8" stroke-width="1" stroke-linecap="round" opacity="0.08"/>
<line x1="380" y1="0" x2="380" y2="1920" stroke="#1d4ed8" stroke-width="1" stroke-linecap="round" opacity="0.08"/>
<line x1="480" y1="0" x2="480" y2="1920" stroke="#1d4ed8" stroke-width="1" stroke-linecap="round" opacity="0.08"/>
<line x1="580" y1="0" x2="580" y2="1920" stroke="#1d4ed8" stroke-width="1" stroke-linecap="round" opacity="0.08"/>
<line x1="680" y1="0" x2="680" y2="1920" stroke="#1d4ed8" stroke-width="1" stroke-linecap="round" opacity="0.08"/>
<line x1="780" y1="0" x2="780" y2="1920" stroke="#1d4ed8" stroke-width="1" stroke-linecap="round" opacity="0.08"/>
<line x1="880" y1="0" x2="880" y2="1920" stroke="#1d4ed8" stroke-width="1" stroke-linecap="round" opacity="0.08"/>
<line x1="980" y1="0" x2="980" y2="1920" stroke="#1d4ed8" stroke-width="1" stroke-linecap="round" opacity="0.08"/>
<line x1="0" y1="140" x2="1080" y2="140" stroke="#1d4ed8" stroke-width="1" stroke-linecap="round" opacity="0.08"/>
<line x1="0" y1="240" x2="1080" y2="240" stroke="#1d4ed8" stroke-width="1" stroke-linecap="round" opacity="0.08"/>
<line x1="0" y1="340" x2="1080" y2="340" stroke="#1d4ed8" stroke-width="1" stroke-linecap="round" opacity="0.08"/>
<line x1="0" y1="440" x2="1080" y2="440" stroke="#1d4ed8" stroke-width="1" stroke-linecap="round" opacity="0.08"/>
<line x1="0" y1="540" x2="1080" y2="540" stroke="#1d4ed8" stroke-width="1" stroke-linecap="round" opacity="0.08"/>
<line x1="0" y1="640" x2="1080" y2="640" stroke="#1d4ed8" stroke-width="1" stroke-linecap="round" opacity="0.08"/>
<line x1="0" y1="740" x2="1080" y2="740" stroke="#1d4ed8" stroke-width="1" stroke-linecap="round" opacity="0.08"/>
<line x1="0" y1="840" x2="1080" y2="840" stroke="#1d4ed8" stroke-width="1" stroke-linecap="round" opacity="0.08"/>
<line x1="0" y1="940" x2="1080" y2="940" stroke="#1d4ed8" stroke-width="1" stroke-linecap="round" opacity="0.08"/>
<line x1="0" y1="1040" x2="1080" y2="1040" stroke="#1d4ed8" stroke-width="1" stroke-linecap="round" opacity="0.08"/>
<line x1="0" y1="1140" x2="1080" y2="1140" stroke="#1d4ed8" stroke-width="1" stroke-linecap="round" opacity="0.08"/>
<line x1="0" y1="1240" x2="1080" y2="1240" stroke="#1d4ed8" stroke-width="1" stroke-linecap="round" opacity="0.08"/>
<line x1="0" y1="1340" x2="1080" y2="1340" stroke="#1d4ed8" stroke-width="1" stroke-linecap="round" opacity="0.08"/>
<line x1="0" y1="1440" x2="1080" y2="1440" stroke="#1d4ed8" stroke-width="1" stroke-linecap="round" opacity="0.08"/>
<line x1="0" y1="1540" x2="1080" y2="1540" stroke="#1d4ed8" stroke-width="1" stroke-linecap="round" opacity="0.08"/>
<line x1="0" y1="1640" x2="1080" y2="1640" stroke="#1d4ed8" stroke-width="1" stroke-linecap="round" opacity="0.08"/>
<line x1="0" y1="1740" x2="1080" y2="1740" stroke="#1d4ed8" stroke-width="1" stroke-linecap="round" opacity="0.08"/>
<line x1="0" y1="1840" x2="1080" y2="1840" stroke="#1d4ed8" stroke-width="1" stroke-linecap="round" opacity="0.08"/>
  
  
    <rect x="72" y="72" width="268" height="52" rx="26" fill="#0b1220" stroke="#2563eb" stroke-width="2" opacity="0.95"/>
    <text x="206" y="108" text-anchor="middle" font-family="-apple-system, BlinkMacSystemFont, 'PingFang SC', 'Noto Sans CJK SC', 'Microsoft YaHei', sans-serif" font-size="24" font-weight="700" fill="#93c5fd">03 / Model Nature</text>
  
  
    <text x="540" y="260" text-anchor="middle" font-family="-apple-system, BlinkMacSystemFont, 'PingFang SC', 'Noto Sans CJK SC', 'Microsoft YaHei', sans-serif" font-size="72" font-weight="800" fill="#f7fbff">LLM =</text>
    <text x="540" y="352" text-anchor="middle" font-family="-apple-system, BlinkMacSystemFont, 'PingFang SC', 'Noto Sans CJK SC', 'Microsoft YaHei', sans-serif" font-size="66" font-weight="800" fill="#bfdbfe">上下文中的概率生成器</text>
    <text x="540" y="424" text-anchor="middle" font-family="-apple-system, BlinkMacSystemFont, 'PingFang SC', 'Noto Sans CJK SC', 'Microsoft YaHei', sans-serif" font-size="32" font-weight="500" fill="#dbeafe">根据当前上下文生成最可能的下一个 token</text>
  
  
    <rect x="94" y="760" width="892" height="420" rx="42" fill="#0b1220" stroke="#60a5fa" stroke-width="3" opacity="0.92"/>
    <rect x="142" y="872" width="136" height="72" rx="18" fill="#1e3a8a" stroke="#93c5fd" stroke-width="2" opacity="0.95"/>
<rect x="308" y="872" width="136" height="72" rx="18" fill="#1e3a8a" stroke="#93c5fd" stroke-width="2" opacity="0.95"/>
<rect x="474" y="872" width="136" height="72" rx="18" fill="#1e3a8a" stroke="#93c5fd" stroke-width="2" opacity="0.95"/>
<rect x="640" y="872" width="136" height="72" rx="18" fill="#1e3a8a" stroke="#93c5fd" stroke-width="2" opacity="0.95"/>
<rect x="806" y="872" width="136" height="72" rx="18" fill="#1e3a8a" stroke="#93c5fd" stroke-width="2" opacity="0.95"/>
    <text x="210" y="920" text-anchor="middle" font-family="-apple-system, BlinkMacSystemFont, 'PingFang SC', 'Noto Sans CJK SC', 'Microsoft YaHei', sans-serif" font-size="26" font-weight="800" fill="#f7fbff">LLM</text>
<text x="376" y="920" text-anchor="middle" font-family="-apple-system, BlinkMacSystemFont, 'PingFang SC', 'Noto Sans CJK SC', 'Microsoft YaHei', sans-serif" font-size="26" font-weight="800" fill="#f7fbff">生成</text>
<text x="542" y="920" text-anchor="middle" font-family="-apple-system, BlinkMacSystemFont, 'PingFang SC', 'Noto Sans CJK SC', 'Microsoft YaHei', sans-serif" font-size="26" font-weight="800" fill="#f7fbff">下一个</text>
<text x="708" y="920" text-anchor="middle" font-family="-apple-system, BlinkMacSystemFont, 'PingFang SC', 'Noto Sans CJK SC', 'Microsoft YaHei', sans-serif" font-size="26" font-weight="800" fill="#f7fbff">最可能</text>
<text x="874" y="920" text-anchor="middle" font-family="-apple-system, BlinkMacSystemFont, 'PingFang SC', 'Noto Sans CJK SC', 'Microsoft YaHei', sans-serif" font-size="26" font-weight="800" fill="#f7fbff">Token</text>
    <rect x="142" y="1012" width="136" height="18" rx="9" fill="#60a5fa" stroke="none" stroke-width="0" opacity="0.8"/>
<rect x="308" y="1012" width="136" height="28" rx="9" fill="#60a5fa" stroke="none" stroke-width="0" opacity="0.8"/>
<rect x="474" y="1012" width="136" height="38" rx="9" fill="#60a5fa" stroke="none" stroke-width="0" opacity="0.8"/>
<rect x="640" y="1012" width="136" height="48" rx="9" fill="#60a5fa" stroke="none" stroke-width="0" opacity="0.8"/>
<rect x="806" y="1012" width="136" height="58" rx="9" fill="#60a5fa" stroke="none" stroke-width="0" opacity="0.8"/>
    <text x="540" y="1120" text-anchor="middle" font-family="-apple-system, BlinkMacSystemFont, 'PingFang SC', 'Noto Sans CJK SC', 'Microsoft YaHei', sans-serif" font-size="42" font-weight="900" fill="#fef3c7">概率高 ≠ 事实真</text>
  
  
    <rect x="72" y="1672" width="936" height="128" rx="34" fill="#0b1220" stroke="#1d4ed8" stroke-width="2" opacity="0.88"/>
    <text x="540" y="1748" text-anchor="middle" font-family="-apple-system, BlinkMacSystemFont, 'PingFang SC', 'Noto Sans CJK SC', 'Microsoft YaHei', sans-serif" font-size="34" font-weight="700" fill="#f8fafc">生成看起来合理，不代表一定真实</text>
  
</svg>
