<svg xmlns="http://www.w3.org/2000/svg" width="1800" height="1120" viewBox="0 0 1800 1120">
<defs>
<marker id="arrow-2563eb" markerWidth="12" markerHeight="12" refX="10" refY="6" orient="auto" markerUnits="strokeWidth"><path d="M2,2 L10,6 L2,10 Z" fill="#2563eb"/></marker>
<marker id="arrow-16a34a" markerWidth="12" markerHeight="12" refX="10" refY="6" orient="auto" markerUnits="strokeWidth"><path d="M2,2 L10,6 L2,10 Z" fill="#16a34a"/></marker>
<marker id="arrow-9333ea" markerWidth="12" markerHeight="12" refX="10" refY="6" orient="auto" markerUnits="strokeWidth"><path d="M2,2 L10,6 L2,10 Z" fill="#9333ea"/></marker>
<marker id="arrow-dc2626" markerWidth="12" markerHeight="12" refX="10" refY="6" orient="auto" markerUnits="strokeWidth"><path d="M2,2 L10,6 L2,10 Z" fill="#dc2626"/></marker>
<marker id="arrow-ea580c" markerWidth="12" markerHeight="12" refX="10" refY="6" orient="auto" markerUnits="strokeWidth"><path d="M2,2 L10,6 L2,10 Z" fill="#ea580c"/></marker>
<marker id="arrow-0f766e" markerWidth="12" markerHeight="12" refX="10" refY="6" orient="auto" markerUnits="strokeWidth"><path d="M2,2 L10,6 L2,10 Z" fill="#0f766e"/></marker>
<style>text{font-family:'Helvetica Neue',Helvetica,Arial,'PingFang SC','Microsoft YaHei',sans-serif;}</style>
</defs>
<rect width="1800" height="1120" fill="#ffffff"/>
<text x="900" y="60.260000000000005" text-anchor="middle" font-size="34" font-weight="800" fill="#111827">供应商数据同步链路架构图</text><text x="900" y="92.24" text-anchor="middle" font-size="16" font-weight="500" fill="#6b7280">任务控制、同步执行、发布读模型、补偿观测四个边界；MySQL 保持权威状态，Outbox 保证最终一致</text><rect x="55" y="130" width="410" height="735" rx="12" fill="#eff6ff" stroke="#2563eb" stroke-width="2"/>
<text x="75" y="165.8" text-anchor="start" font-size="20" font-weight="800" fill="#2563eb">触发与任务控制面</text><rect x="500" y="130" width="560" height="735" rx="12" fill="#f0fdf4" stroke="#16a34a" stroke-width="2"/>
<text x="520" y="165.8" text-anchor="start" font-size="20" font-weight="800" fill="#16a34a">同步 Worker 执行面</text><rect x="1095" y="130" width="360" height="735" rx="12" fill="#faf5ff" stroke="#9333ea" stroke-width="2"/>
<text x="1115" y="165.8" text-anchor="start" font-size="20" font-weight="800" fill="#9333ea">平台发布与读模型</text><rect x="1490" y="130" width="255" height="735" rx="12" fill="#fff7ed" stroke="#ea580c" stroke-width="2"/>
<text x="1510" y="165.8" text-anchor="start" font-size="20" font-weight="800" fill="#ea580c">补偿与观测</text><rect x="95" y="205" width="150" height="72" rx="10" fill="#fff" stroke="#2563eb" stroke-width="2"/>
<text x="170" y="231.24" text-anchor="middle" font-size="16" font-weight="750" fill="#111827">触发入口</text>
<text x="170" y="253.25" text-anchor="middle" font-size="12.5" font-weight="500" fill="#4b5563">CRON / MANUAL</text>
<text x="170" y="268.5" text-anchor="middle" font-size="12.5" font-weight="500" fill="#4b5563">COMPENSATION</text><rect x="285" y="205" width="145" height="72" rx="10" fill="#fff" stroke="#2563eb" stroke-width="2"/>
<text x="357.5" y="231.24" text-anchor="middle" font-size="16" font-weight="750" fill="#111827">Task 定义</text>
<text x="357.5" y="253.25" text-anchor="middle" font-size="12.5" font-weight="500" fill="#4b5563">task_code</text>
<text x="357.5" y="268.5" text-anchor="middle" font-size="12.5" font-weight="500" fill="#4b5563">互斥策略</text><path d="M 245 241 L 285 241" fill="none" stroke="#2563eb" stroke-width="2.4" marker-end="url(#arrow-2563eb)"/><rect x="95" y="330" width="335" height="92" rx="10" fill="#ffffff" stroke="#2563eb" stroke-width="2"/>
<text x="262.5" y="352.85" text-anchor="middle" font-size="15" font-weight="750" fill="#2563eb">MySQL 权威任务状态</text>
<text x="262.5" y="379.04" text-anchor="middle" font-size="12" font-weight="500" fill="#4b5563">supplier_sync_task / batch</text>
<text x="262.5" y="393.68" text-anchor="middle" font-size="12" font-weight="500" fill="#4b5563">worker_id + lease_token + lease_until</text>
<text x="262.5" y="408.32000000000005" text-anchor="middle" font-size="12" font-weight="500" fill="#4b5563">end_checkpoint / progress / heartbeat</text><path d="M 358 277 L 358 330" fill="none" stroke="#2563eb" stroke-width="2.4" marker-end="url(#arrow-2563eb)"/>
<text x="431" y="305.68" text-anchor="middle" font-size="12" font-weight="650" fill="#2563eb">创建 batch</text><rect x="95" y="510" width="150" height="72" rx="10" fill="#fff" stroke="#2563eb" stroke-width="2"/>
<text x="170" y="536.24" text-anchor="middle" font-size="16" font-weight="750" fill="#111827">过期 Batch</text>
<text x="170" y="558.25" text-anchor="middle" font-size="12.5" font-weight="500" fill="#4b5563">RUNNING</text>
<text x="170" y="573.5" text-anchor="middle" font-size="12.5" font-weight="500" fill="#4b5563">lease_until &lt; now</text><rect x="285" y="510" width="145" height="72" rx="10" fill="#fff" stroke="#2563eb" stroke-width="2"/>
<text x="357.5" y="536.24" text-anchor="middle" font-size="16" font-weight="750" fill="#111827">CAS 抢占</text>
<text x="357.5" y="558.25" text-anchor="middle" font-size="12.5" font-weight="500" fill="#4b5563">rows_affected=1</text>
<text x="357.5" y="573.5" text-anchor="middle" font-size="12.5" font-weight="500" fill="#4b5563">才可执行</text><path d="M 245 546 L 285 546" fill="none" stroke="#2563eb" stroke-width="2.4" marker-end="url(#arrow-2563eb)"/><path d="M 358 422 L 358 510" fill="none" stroke="#2563eb" stroke-width="2.4" stroke-dasharray="8 8" marker-end="url(#arrow-2563eb)"/>
<text x="440" y="475.68" text-anchor="middle" font-size="12" font-weight="650" fill="#2563eb">恢复扫描</text><rect x="535" y="205" width="150" height="72" rx="10" fill="#fff" stroke="#16a34a" stroke-width="2"/>
<text x="610" y="231.24" text-anchor="middle" font-size="16" font-weight="750" fill="#111827">Sync Worker</text>
<text x="610" y="253.25" text-anchor="middle" font-size="12.5" font-weight="500" fill="#4b5563">claim batch</text>
<text x="610" y="268.5" text-anchor="middle" font-size="12.5" font-weight="500" fill="#4b5563">续租心跳</text><rect x="725" y="205" width="150" height="72" rx="10" fill="#fff" stroke="#16a34a" stroke-width="2"/>
<text x="800" y="231.24" text-anchor="middle" font-size="16" font-weight="750" fill="#111827">Fetcher</text>
<text x="800" y="253.25" text-anchor="middle" font-size="12.5" font-weight="500" fill="#4b5563">城市 / 分页</text>
<text x="800" y="268.5" text-anchor="middle" font-size="12.5" font-weight="500" fill="#4b5563">限流 / 熔断</text><rect x="915" y="205" width="110" height="72" rx="10" fill="#fff" stroke="#16a34a" stroke-width="2"/>
<text x="970" y="231.24" text-anchor="middle" font-size="16" font-weight="750" fill="#111827">Adapter</text>
<text x="970" y="253.25" text-anchor="middle" font-size="12.5" font-weight="500" fill="#4b5563">供应商协议</text>
<text x="970" y="268.5" text-anchor="middle" font-size="12.5" font-weight="500" fill="#4b5563">字段接入</text><path d="M 430 546 L 535 241" fill="none" stroke="#16a34a" stroke-width="2.4" stroke-dasharray="8 8" marker-end="url(#arrow-16a34a)"/>
<text x="520" y="383.68" text-anchor="middle" font-size="12" font-weight="650" fill="#16a34a">领取执行</text><path d="M 685 241 L 725 241" fill="none" stroke="#16a34a" stroke-width="2.4" marker-end="url(#arrow-16a34a)"/><path d="M 875 241 L 915 241" fill="none" stroke="#16a34a" stroke-width="2.4" marker-end="url(#arrow-16a34a)"/><rect x="535" y="360" width="150" height="72" rx="10" fill="#fff" stroke="#0f766e" stroke-width="2"/>
<text x="610" y="386.24" text-anchor="middle" font-size="16" font-weight="750" fill="#111827">Raw Snapshot</text>
<text x="610" y="408.25" text-anchor="middle" font-size="12.5" font-weight="500" fill="#4b5563">payload_ref</text>
<text x="610" y="423.5" text-anchor="middle" font-size="12.5" font-weight="500" fill="#4b5563">payload_hash</text><rect x="725" y="360" width="150" height="72" rx="10" fill="#fff" stroke="#16a34a" stroke-width="2"/>
<text x="800" y="386.24" text-anchor="middle" font-size="16" font-weight="750" fill="#111827">Normalize</text>
<text x="800" y="408.25" text-anchor="middle" font-size="12.5" font-weight="500" fill="#4b5563">平台字段</text>
<text x="800" y="423.5" text-anchor="middle" font-size="12.5" font-weight="500" fill="#4b5563">单位 / 枚举</text><rect x="915" y="360" width="110" height="72" rx="10" fill="#fff" stroke="#16a34a" stroke-width="2"/>
<text x="970" y="386.24" text-anchor="middle" font-size="16" font-weight="750" fill="#111827">Validate</text>
<text x="970" y="408.25" text-anchor="middle" font-size="12.5" font-weight="500" fill="#4b5563">Schema</text>
<text x="970" y="423.5" text-anchor="middle" font-size="12.5" font-weight="500" fill="#4b5563">主数据</text><path d="M 970 277 L 970 328 L 610 328 L 610 360" fill="none" stroke="#0f766e" stroke-width="2.4" marker-end="url(#arrow-0f766e)"/>
<text x="760" y="319.68" text-anchor="middle" font-size="12" font-weight="650" fill="#0f766e">原始响应</text><path d="M 685 396 L 725 396" fill="none" stroke="#16a34a" stroke-width="2.4" marker-end="url(#arrow-16a34a)"/><path d="M 875 396 L 915 396" fill="none" stroke="#16a34a" stroke-width="2.4" marker-end="url(#arrow-16a34a)"/><rect x="535" y="520" width="150" height="72" rx="10" fill="#fff" stroke="#16a34a" stroke-width="2"/>
<text x="610" y="546.24" text-anchor="middle" font-size="16" font-weight="750" fill="#111827">Mapping</text>
<text x="610" y="568.25" text-anchor="middle" font-size="12.5" font-weight="500" fill="#4b5563">supplier code</text>
<text x="610" y="583.5" text-anchor="middle" font-size="12.5" font-weight="500" fill="#4b5563">Resource / SKU</text><rect x="725" y="520" width="150" height="72" rx="10" fill="#fff" stroke="#16a34a" stroke-width="2"/>
<text x="800" y="546.24" text-anchor="middle" font-size="16" font-weight="750" fill="#111827">Diff / Risk</text>
<text x="800" y="568.25" text-anchor="middle" font-size="12.5" font-weight="500" fill="#4b5563">changed_fields</text>
<text x="800" y="583.5" text-anchor="middle" font-size="12.5" font-weight="500" fill="#4b5563">risk_level</text><rect x="915" y="520" width="110" height="72" rx="10" fill="#fff" stroke="#16a34a" stroke-width="2"/>
<text x="970" y="546.24" text-anchor="middle" font-size="16" font-weight="750" fill="#111827">Decision</text>
<text x="970" y="568.25" text-anchor="middle" font-size="12.5" font-weight="500" fill="#4b5563">AUTO</text>
<text x="970" y="583.5" text-anchor="middle" font-size="12.5" font-weight="500" fill="#4b5563">REVIEW / DLQ</text><path d="M 970 432 L 970 478 L 610 478 L 610 520" fill="none" stroke="#16a34a" stroke-width="2.4" marker-end="url(#arrow-16a34a)"/><path d="M 685 556 L 725 556" fill="none" stroke="#16a34a" stroke-width="2.4" marker-end="url(#arrow-16a34a)"/><path d="M 875 556 L 915 556" fill="none" stroke="#16a34a" stroke-width="2.4" marker-end="url(#arrow-16a34a)"/><rect x="535" y="700" width="490" height="90" rx="10" fill="#ffffff" stroke="#0f766e" stroke-width="2"/>
<text x="780" y="722.85" text-anchor="middle" font-size="15" font-weight="750" fill="#0f766e">同步数据存储</text>
<text x="780" y="748.04" text-anchor="middle" font-size="12" font-weight="500" fill="#4b5563">supplier_sync_snapshot / diff_log / dead_letter</text>
<text x="780" y="762.68" text-anchor="middle" font-size="12" font-weight="500" fill="#4b5563">Raw payload 存对象存储，表里只放 payload_ref + hash</text>
<text x="780" y="777.3199999999999" text-anchor="middle" font-size="12" font-weight="500" fill="#4b5563">失败来源在 DLQ 中记录 error_stage / error_type</text><path d="M 610 432 L 610 700" fill="none" stroke="#0f766e" stroke-width="2.4" stroke-dasharray="8 8" marker-end="url(#arrow-0f766e)"/>
<text x="670" y="573.68" text-anchor="middle" font-size="12" font-weight="650" fill="#0f766e">留痕</text><path d="M 970 592 L 970 700" fill="none" stroke="#16a34a" stroke-width="2.4" stroke-dasharray="8 8" marker-end="url(#arrow-16a34a)"/>
<text x="1045" y="648.68" text-anchor="middle" font-size="12" font-weight="650" fill="#16a34a">结果落库</text><rect x="1130" y="210" width="145" height="74" rx="10" fill="#fff" stroke="#9333ea" stroke-width="2"/>
<text x="1202.5" y="236.24" text-anchor="middle" font-size="16" font-weight="750" fill="#111827">发布事务</text>
<text x="1202.5" y="259.25" text-anchor="middle" font-size="12.5" font-weight="500" fill="#4b5563">Resource / SPU / SKU</text>
<text x="1202.5" y="274.5" text-anchor="middle" font-size="12.5" font-weight="500" fill="#4b5563">Offer / Rule</text><rect x="1310" y="210" width="110" height="74" rx="10" fill="#fff" stroke="#9333ea" stroke-width="2"/>
<text x="1365" y="236.24" text-anchor="middle" font-size="16" font-weight="750" fill="#111827">发布版本</text>
<text x="1365" y="259.25" text-anchor="middle" font-size="12.5" font-weight="500" fill="#4b5563">publish_version</text>
<text x="1365" y="274.5" text-anchor="middle" font-size="12.5" font-weight="500" fill="#4b5563">可回滚</text><path d="M 1025 556 L 1105 556 L 1105 247 L 1130 247" fill="none" stroke="#9333ea" stroke-width="2.4" marker-end="url(#arrow-9333ea)"/>
<text x="1110" y="441.68" text-anchor="middle" font-size="12" font-weight="650" fill="#9333ea">低风险发布</text><path d="M 1275 247 L 1310 247" fill="none" stroke="#9333ea" stroke-width="2.4" marker-end="url(#arrow-9333ea)"/><rect x="1130" y="385" width="145" height="74" rx="10" fill="#fff" stroke="#9333ea" stroke-width="2"/>
<text x="1202.5" y="411.24" text-anchor="middle" font-size="16" font-weight="750" fill="#111827">Outbox</text>
<text x="1202.5" y="434.25" text-anchor="middle" font-size="12.5" font-weight="500" fill="#4b5563">同事务写入</text>
<text x="1202.5" y="449.5" text-anchor="middle" font-size="12.5" font-weight="500" fill="#4b5563">异步投递</text><rect x="1310" y="385" width="110" height="74" rx="10" fill="#fff" stroke="#9333ea" stroke-width="2"/>
<text x="1365" y="411.24" text-anchor="middle" font-size="16" font-weight="750" fill="#111827">搜索缓存</text>
<text x="1365" y="434.25" text-anchor="middle" font-size="12.5" font-weight="500" fill="#4b5563">ES refresh</text>
<text x="1365" y="449.5" text-anchor="middle" font-size="12.5" font-weight="500" fill="#4b5563">cache invalidation</text><path d="M 1202 284 L 1202 385" fill="none" stroke="#9333ea" stroke-width="2.4" marker-end="url(#arrow-9333ea)"/><path d="M 1275 422 L 1310 422" fill="none" stroke="#9333ea" stroke-width="2.4" marker-end="url(#arrow-9333ea)"/><rect x="1130" y="560" width="145" height="74" rx="10" fill="#fff" stroke="#9333ea" stroke-width="2"/>
<text x="1202.5" y="586.24" text-anchor="middle" font-size="16" font-weight="750" fill="#111827">订单上下文</text>
<text x="1202.5" y="609.25" text-anchor="middle" font-size="12.5" font-weight="500" fill="#4b5563">商品快照</text>
<text x="1202.5" y="624.5" text-anchor="middle" font-size="12.5" font-weight="500" fill="#4b5563">报价 / 契约</text><rect x="1310" y="560" width="110" height="74" rx="10" fill="#fff" stroke="#9333ea" stroke-width="2"/>
<text x="1365" y="586.24" text-anchor="middle" font-size="16" font-weight="750" fill="#111827">下游系统</text>
<text x="1365" y="609.25" text-anchor="middle" font-size="12.5" font-weight="500" fill="#4b5563">计价 / 营销</text>
<text x="1365" y="624.5" text-anchor="middle" font-size="12.5" font-weight="500" fill="#4b5563">数据平台</text><path d="M 1365 459 L 1365 560" fill="none" stroke="#9333ea" stroke-width="2.4" marker-end="url(#arrow-9333ea)"/><path d="M 1275 597 L 1310 597" fill="none" stroke="#9333ea" stroke-width="2.4" marker-end="url(#arrow-9333ea)"/><rect x="1130" y="735" width="290" height="70" rx="10" fill="#fff1f2" stroke="#dc2626" stroke-width="2"/>
<text x="1275" y="757.85" text-anchor="middle" font-size="15" font-weight="750" fill="#dc2626">发布补偿入口</text>
<text x="1275" y="780.36" text-anchor="middle" font-size="12" font-weight="500" fill="#4b5563">Outbox 投递 / ES 刷新 / 缓存失效失败</text>
<text x="1275" y="795" text-anchor="middle" font-size="12" font-weight="500" fill="#4b5563">进入补偿任务，任务状态仍可追踪</text><rect x="1525" y="205" width="185" height="80" rx="10" fill="#fff1f2" stroke="#dc2626" stroke-width="2"/>
<text x="1617.5" y="227.85" text-anchor="middle" font-size="15" font-weight="750" fill="#dc2626">DLQ / 错误文件</text>
<text x="1617.5" y="255.36" text-anchor="middle" font-size="12" font-weight="500" fill="#4b5563">字段缺失、映射失败</text>
<text x="1617.5" y="270" text-anchor="middle" font-size="12" font-weight="500" fill="#4b5563">高风险、发布失败</text><rect x="1525" y="345" width="185" height="80" rx="10" fill="#fff1f2" stroke="#dc2626" stroke-width="2"/>
<text x="1617.5" y="367.85" text-anchor="middle" font-size="15" font-weight="750" fill="#dc2626">补偿 Job</text>
<text x="1617.5" y="395.36" text-anchor="middle" font-size="12" font-weight="500" fill="#4b5563">指数退避重试</text>
<text x="1617.5" y="410" text-anchor="middle" font-size="12" font-weight="500" fill="#4b5563">人工修复后重投</text><path d="M 1618 285 L 1618 345" fill="none" stroke="#dc2626" stroke-width="2.4" marker-end="url(#arrow-dc2626)"/><rect x="1525" y="510" width="185" height="80" rx="10" fill="#ffffff" stroke="#ea580c" stroke-width="2"/>
<text x="1617.5" y="532.85" text-anchor="middle" font-size="15" font-weight="750" fill="#ea580c">监控告警</text>
<text x="1617.5" y="560.36" text-anchor="middle" font-size="12" font-weight="500" fill="#4b5563">heartbeat_lag</text>
<text x="1617.5" y="575" text-anchor="middle" font-size="12" font-weight="500" fill="#4b5563">checkpoint_lag</text><rect x="1525" y="650" width="185" height="80" rx="10" fill="#ffffff" stroke="#ea580c" stroke-width="2"/>
<text x="1617.5" y="672.85" text-anchor="middle" font-size="15" font-weight="750" fill="#ea580c">质量报表</text>
<text x="1617.5" y="700.36" text-anchor="middle" font-size="12" font-weight="500" fill="#4b5563">字段缺失率</text>
<text x="1617.5" y="715" text-anchor="middle" font-size="12" font-weight="500" fill="#4b5563">映射失败率 / 修复率</text><path d="M 1618 590 L 1618 650" fill="none" stroke="#ea580c" stroke-width="2.4" marker-end="url(#arrow-ea580c)"/><text x="90" y="949.24" text-anchor="start" font-size="16" font-weight="650" fill="#374151">架构原则：任务状态与 checkpoint 落 MySQL；Worker 只能在持有 lease_token 时写入；Raw Snapshot 用于追溯回放；发布通过 publish_version + Outbox 保证最终一致</text><rect x="90" y="985" width="20" height="8" rx="4" fill="#2563eb" stroke="#2563eb" stroke-width="1"/><text x="118" y="993.68" text-anchor="start" font-size="12" font-weight="650" fill="#2563eb">任务控制</text>
<rect x="250" y="985" width="20" height="8" rx="4" fill="#16a34a" stroke="#16a34a" stroke-width="1"/><text x="278" y="993.68" text-anchor="start" font-size="12" font-weight="650" fill="#16a34a">同步执行</text>
<rect x="410" y="985" width="20" height="8" rx="4" fill="#0f766e" stroke="#0f766e" stroke-width="1"/><text x="438" y="993.68" text-anchor="start" font-size="12" font-weight="650" fill="#0f766e">留痕存储</text>
<rect x="570" y="985" width="20" height="8" rx="4" fill="#9333ea" stroke="#9333ea" stroke-width="1"/><text x="598" y="993.68" text-anchor="start" font-size="12" font-weight="650" fill="#9333ea">发布事件</text>
<rect x="730" y="985" width="20" height="8" rx="4" fill="#dc2626" stroke="#dc2626" stroke-width="1"/><text x="758" y="993.68" text-anchor="start" font-size="12" font-weight="650" fill="#dc2626">失败补偿</text>
<rect x="890" y="985" width="20" height="8" rx="4" fill="#ea580c" stroke="#ea580c" stroke-width="1"/><text x="918" y="993.68" text-anchor="start" font-size="12" font-weight="650" fill="#ea580c">观测指标</text></svg>
