<?xml version="1.0" encoding="UTF-8"?>
<svg xmlns="http://www.w3.org/2000/svg" width="1080" height="1920" viewBox="0 0 1080 1920">
  
    <defs>
      <linearGradient id="bg" x1="0" y1="0" x2="1" y2="1">
        <stop offset="0%" stop-color="#030712"/>
        <stop offset="45%" stop-color="#0f172a"/>
        <stop offset="100%" stop-color="#042f2e"/>
      </linearGradient>
      <radialGradient id="glow" cx="50%" cy="35%" r="62%">
        <stop offset="0%" stop-color="#14b8a6" stop-opacity="0.32"/>
        <stop offset="52%" stop-color="#0f766e" stop-opacity="0.10"/>
        <stop offset="100%" stop-color="#020617" stop-opacity="0"/>
      </radialGradient>
    </defs>
    <rect x="0" y="0" width="1080" height="1920" rx="0" fill="url(#bg)" stroke="none" stroke-width="0" opacity="1"/>
    <rect x="0" y="0" width="1080" height="1920" rx="0" fill="url(#glow)" stroke="none" stroke-width="0" opacity="1"/>
    <line x1="80" y1="0" x2="80" y2="1920" stroke="#0f766e" stroke-width="1" stroke-linecap="round" opacity="0.08"/>
<line x1="180" y1="0" x2="180" y2="1920" stroke="#0f766e" stroke-width="1" stroke-linecap="round" opacity="0.08"/>
<line x1="280" y1="0" x2="280" y2="1920" stroke="#0f766e" stroke-width="1" stroke-linecap="round" opacity="0.08"/>
<line x1="380" y1="0" x2="380" y2="1920" stroke="#0f766e" stroke-width="1" stroke-linecap="round" opacity="0.08"/>
<line x1="480" y1="0" x2="480" y2="1920" stroke="#0f766e" stroke-width="1" stroke-linecap="round" opacity="0.08"/>
<line x1="580" y1="0" x2="580" y2="1920" stroke="#0f766e" stroke-width="1" stroke-linecap="round" opacity="0.08"/>
<line x1="680" y1="0" x2="680" y2="1920" stroke="#0f766e" stroke-width="1" stroke-linecap="round" opacity="0.08"/>
<line x1="780" y1="0" x2="780" y2="1920" stroke="#0f766e" stroke-width="1" stroke-linecap="round" opacity="0.08"/>
<line x1="880" y1="0" x2="880" y2="1920" stroke="#0f766e" stroke-width="1" stroke-linecap="round" opacity="0.08"/>
<line x1="980" y1="0" x2="980" y2="1920" stroke="#0f766e" stroke-width="1" stroke-linecap="round" opacity="0.08"/>
<line x1="0" y1="140" x2="1080" y2="140" stroke="#0f766e" stroke-width="1" stroke-linecap="round" opacity="0.08"/>
<line x1="0" y1="240" x2="1080" y2="240" stroke="#0f766e" stroke-width="1" stroke-linecap="round" opacity="0.08"/>
<line x1="0" y1="340" x2="1080" y2="340" stroke="#0f766e" stroke-width="1" stroke-linecap="round" opacity="0.08"/>
<line x1="0" y1="440" x2="1080" y2="440" stroke="#0f766e" stroke-width="1" stroke-linecap="round" opacity="0.08"/>
<line x1="0" y1="540" x2="1080" y2="540" stroke="#0f766e" stroke-width="1" stroke-linecap="round" opacity="0.08"/>
<line x1="0" y1="640" x2="1080" y2="640" stroke="#0f766e" stroke-width="1" stroke-linecap="round" opacity="0.08"/>
<line x1="0" y1="740" x2="1080" y2="740" stroke="#0f766e" stroke-width="1" stroke-linecap="round" opacity="0.08"/>
<line x1="0" y1="840" x2="1080" y2="840" stroke="#0f766e" stroke-width="1" stroke-linecap="round" opacity="0.08"/>
<line x1="0" y1="940" x2="1080" y2="940" stroke="#0f766e" stroke-width="1" stroke-linecap="round" opacity="0.08"/>
<line x1="0" y1="1040" x2="1080" y2="1040" stroke="#0f766e" stroke-width="1" stroke-linecap="round" opacity="0.08"/>
<line x1="0" y1="1140" x2="1080" y2="1140" stroke="#0f766e" stroke-width="1" stroke-linecap="round" opacity="0.08"/>
<line x1="0" y1="1240" x2="1080" y2="1240" stroke="#0f766e" stroke-width="1" stroke-linecap="round" opacity="0.08"/>
<line x1="0" y1="1340" x2="1080" y2="1340" stroke="#0f766e" stroke-width="1" stroke-linecap="round" opacity="0.08"/>
<line x1="0" y1="1440" x2="1080" y2="1440" stroke="#0f766e" stroke-width="1" stroke-linecap="round" opacity="0.08"/>
<line x1="0" y1="1540" x2="1080" y2="1540" stroke="#0f766e" stroke-width="1" stroke-linecap="round" opacity="0.08"/>
<line x1="0" y1="1640" x2="1080" y2="1640" stroke="#0f766e" stroke-width="1" stroke-linecap="round" opacity="0.08"/>
<line x1="0" y1="1740" x2="1080" y2="1740" stroke="#0f766e" stroke-width="1" stroke-linecap="round" opacity="0.08"/>
<line x1="0" y1="1840" x2="1080" y2="1840" stroke="#0f766e" stroke-width="1" stroke-linecap="round" opacity="0.08"/>
  
  
    <rect x="72" y="72" width="290" height="52" rx="26" fill="#0b1220" stroke="#14b8a6" stroke-width="2" opacity="0.95"/>
    <text x="217" y="108" text-anchor="middle" font-family="-apple-system, BlinkMacSystemFont, 'PingFang SC', 'Noto Sans CJK SC', 'Microsoft YaHei', sans-serif" font-size="24" font-weight="700" fill="#99f6e4">01 / Hook</text>
  
  
    <text x="540" y="250" text-anchor="middle" font-family="-apple-system, BlinkMacSystemFont, 'PingFang SC', 'Noto Sans CJK SC', 'Microsoft YaHei', sans-serif" font-size="70" font-weight="850" fill="#f7fbff">Agent 不是</text>
    <text x="540" y="342" text-anchor="middle" font-family="-apple-system, BlinkMacSystemFont, 'PingFang SC', 'Noto Sans CJK SC', 'Microsoft YaHei', sans-serif" font-size="62" font-weight="850" fill="#a7f3d0">多一个聊天入口</text>
    <text x="540" y="414" text-anchor="middle" font-family="-apple-system, BlinkMacSystemFont, 'PingFang SC', 'Noto Sans CJK SC', 'Microsoft YaHei', sans-serif" font-size="32" font-weight="600" fill="#dbeafe">它应该是长期运行的个人 Runtime</text>
  
  
    <circle cx="540" cy="1010" r="150" fill="#0f766e" stroke="#99f6e4" stroke-width="4" opacity="0.95"/>
    <text x="540" y="1000" text-anchor="middle" font-family="-apple-system, BlinkMacSystemFont, 'PingFang SC', 'Noto Sans CJK SC', 'Microsoft YaHei', sans-serif" font-size="58" font-weight="900" fill="#f7fbff">Agent</text>
    <text x="540" y="1064" text-anchor="middle" font-family="-apple-system, BlinkMacSystemFont, 'PingFang SC', 'Noto Sans CJK SC', 'Microsoft YaHei', sans-serif" font-size="36" font-weight="850" fill="#ccfbf1">Runtime</text>
    
    <rect x="110" y="780" width="138" height="76" rx="22" fill="#020617" stroke="#60a5fa" stroke-width="2" opacity="0.82"/>
    <text x="179" y="829" text-anchor="middle" font-family="-apple-system, BlinkMacSystemFont, 'PingFang SC', 'Noto Sans CJK SC', 'Microsoft YaHei', sans-serif" font-size="30" font-weight="800" fill="#f8fafc">CLI</text>
  <line x1="179" y1="855" x2="540" y2="1010" stroke="#60a5fa" stroke-width="3" stroke-linecap="round" opacity="0.55"/>

    <rect x="282" y="1220" width="138" height="76" rx="22" fill="#020617" stroke="#60a5fa" stroke-width="2" opacity="0.82"/>
    <text x="351" y="1269" text-anchor="middle" font-family="-apple-system, BlinkMacSystemFont, 'PingFang SC', 'Noto Sans CJK SC', 'Microsoft YaHei', sans-serif" font-size="30" font-weight="800" fill="#f8fafc">Slack</text>
  <line x1="351" y1="1295" x2="540" y2="1010" stroke="#60a5fa" stroke-width="3" stroke-linecap="round" opacity="0.55"/>

    <rect x="454" y="780" width="138" height="76" rx="22" fill="#020617" stroke="#60a5fa" stroke-width="2" opacity="0.82"/>
    <text x="523" y="829" text-anchor="middle" font-family="-apple-system, BlinkMacSystemFont, 'PingFang SC', 'Noto Sans CJK SC', 'Microsoft YaHei', sans-serif" font-size="30" font-weight="800" fill="#f8fafc">Telegram</text>
  <line x1="523" y1="855" x2="540" y2="1010" stroke="#60a5fa" stroke-width="3" stroke-linecap="round" opacity="0.55"/>

    <rect x="626" y="1220" width="138" height="76" rx="22" fill="#020617" stroke="#60a5fa" stroke-width="2" opacity="0.82"/>
    <text x="695" y="1269" text-anchor="middle" font-family="-apple-system, BlinkMacSystemFont, 'PingFang SC', 'Noto Sans CJK SC', 'Microsoft YaHei', sans-serif" font-size="30" font-weight="800" fill="#f8fafc">IDE</text>
  <line x1="695" y1="1295" x2="540" y2="1010" stroke="#60a5fa" stroke-width="3" stroke-linecap="round" opacity="0.55"/>

    <rect x="798" y="780" width="138" height="76" rx="22" fill="#020617" stroke="#60a5fa" stroke-width="2" opacity="0.82"/>
    <text x="867" y="829" text-anchor="middle" font-family="-apple-system, BlinkMacSystemFont, 'PingFang SC', 'Noto Sans CJK SC', 'Microsoft YaHei', sans-serif" font-size="30" font-weight="800" fill="#f8fafc">Cron</text>
  <line x1="867" y1="855" x2="540" y2="1010" stroke="#60a5fa" stroke-width="3" stroke-linecap="round" opacity="0.55"/>
  
  
    <rect x="72" y="1672" width="936" height="128" rx="28" fill="#0b1220" stroke="#0f766e" stroke-width="2" opacity="0.9"/>
    <text x="540" y="1748" text-anchor="middle" font-family="-apple-system, BlinkMacSystemFont, 'PingFang SC', 'Noto Sans CJK SC', 'Microsoft YaHei', sans-serif" font-size="34" font-weight="750" fill="#f8fafc">会记忆、会沉淀技能、会跨入口工作</text>
  
</svg>
