<svg xmlns="http://www.w3.org/2000/svg" viewBox="0 0 1400 920" width="1400" height="920">
<style>
text { font-family: 'Helvetica Neue', Helvetica, Arial, 'PingFang SC', 'Microsoft YaHei', sans-serif; }
.title { font-size: 24px; font-weight: 700; fill: #111827; }
.subtitle { font-size: 13px; fill: #6b7280; }
.entity-title { font-size: 14px; font-weight: 700; fill: #111827; }
.attr { font-size: 12px; fill: #374151; }
.pk { font-size: 12px; fill: #111827; text-decoration: underline; }
.fk { font-size: 12px; fill: #4b5563; font-style: italic; }
.card { filter: url(#shadow); }
.group-label { font-size: 14px; font-weight: 700; fill: #374151; }
.rel-label { font-size: 11px; fill: #374151; }
.cardinality { font-size: 12px; font-weight: 700; fill: #111827; }
</style>
<defs>
<filter id="shadow" x="-10%" y="-10%" width="120%" height="120%"><feDropShadow dx="0" dy="2" stdDeviation="2" flood-color="#000000" flood-opacity="0.10"/></filter>
<marker id="arrow-blue" markerWidth="10" markerHeight="7" refX="9" refY="3.5" orient="auto"><polygon points="0 0,10 3.5,0 7" fill="#2563eb"/></marker>
<marker id="arrow-green" markerWidth="10" markerHeight="7" refX="9" refY="3.5" orient="auto"><polygon points="0 0,10 3.5,0 7" fill="#16a34a"/></marker>
<marker id="arrow-orange" markerWidth="10" markerHeight="7" refX="9" refY="3.5" orient="auto"><polygon points="0 0,10 3.5,0 7" fill="#ea580c"/></marker>
<marker id="arrow-purple" markerWidth="10" markerHeight="7" refX="9" refY="3.5" orient="auto"><polygon points="0 0,10 3.5,0 7" fill="#9333ea"/></marker>
</defs>
<rect width="1400" height="920" fill="#ffffff"/>
<text x="50" y="42" class="title">方案 3：异构商品交易契约模型 ER 图</text>
<text x="50" y="66" class="subtitle">Product Definition + Resource + Offer / Rate Plan + Capability Matrix + Runtime Context 的核心持久化关系</text>
<rect x="30" y="82" width="1320" height="210" rx="14" fill="#f9fafb" stroke="#e5e7eb" stroke-dasharray="6,4"/>
<text x="48" y="105" class="group-label">稳定主数据：商品定义与业务资源</text>
<rect x="30" y="320" width="1320" height="390" rx="14" fill="#ffffff" stroke="#e5e7eb" stroke-dasharray="6,4"/>
<text x="48" y="342" class="group-label">交易前契约与资源映射：报价、库存、售后、供应商映射</text>
<rect x="30" y="705" width="855" height="185" rx="14" fill="#fbfaff" stroke="#e5e7eb" stroke-dasharray="6,4"/>
<text x="48" y="727" class="group-label">类目能力矩阵：输入、履约、退款规则</text>
<path d="M 270,169 L 300,169 L 300,169 L 330,169" fill="none" stroke="#2563eb" stroke-width="1.7" marker-end="url(#arrow-blue)"/>
<rect x="272.0" y="156.0" width="56" height="18" rx="4" fill="#ffffff" opacity="0.94"/>
<text x="300.0" y="169.0" text-anchor="middle" class="rel-label">分类</text>
<text x="280.0" y="162.0" text-anchor="middle" class="cardinality">1</text>
<text x="320.0" y="162.0" text-anchor="middle" class="cardinality">N</text>
<path d="M 550,169 L 580,169 L 580,177 L 610,177" fill="none" stroke="#2563eb" stroke-width="1.7" marker-end="url(#arrow-blue)"/>
<rect x="552.0" y="160.0" width="56" height="18" rx="4" fill="#ffffff" opacity="0.94"/>
<text x="580.0" y="173.0" text-anchor="middle" class="rel-label">包含</text>
<text x="560.0" y="162.0" text-anchor="middle" class="cardinality">1</text>
<text x="600.0" y="170.0" text-anchor="middle" class="cardinality">N</text>
<path d="M 840,177 L 880,177 L 880,422 L 920,422" fill="none" stroke="#16a34a" stroke-width="1.7" marker-end="url(#arrow-green)"/>
<rect x="852.0" y="409.0" width="56" height="18" rx="4" fill="#ffffff" opacity="0.94"/>
<text x="880.0" y="422.0" text-anchor="middle" class="rel-label">关联资源</text>
<text x="850.0" y="170.0" text-anchor="middle" class="cardinality">1</text>
<text x="910.0" y="415.0" text-anchor="middle" class="cardinality">N</text>
<path d="M 1060,185 L 1000,185 L 1000,422 L 1170,422" fill="none" stroke="#16a34a" stroke-width="1.7" marker-end="url(#arrow-green)"/>
<rect x="972.0" y="409.0" width="56" height="18" rx="4" fill="#ffffff" opacity="0.94"/>
<text x="1000.0" y="422.0" text-anchor="middle" class="rel-label">被引用</text>
<text x="1050.0" y="178.0" text-anchor="middle" class="cardinality">1</text>
<text x="1180.0" y="415.0" text-anchor="middle" class="cardinality">N</text>
<path d="M 1185,270 L 1227,270 L 1227,345 L 1270,345" fill="none" stroke="#16a34a" stroke-width="1.7" marker-end="url(#arrow-green)"/>
<rect x="1199.5" y="294.5" width="56" height="18" rx="4" fill="#ffffff" opacity="0.94"/>
<text x="1227.5" y="307.5" text-anchor="middle" class="rel-label">父子/组合</text>
<text x="1185.0" y="263.0" text-anchor="middle" class="cardinality">1</text>
<text x="1270.0" y="338.0" text-anchor="middle" class="cardinality">N</text>
<path d="M 1185,270 L 1180,290 L 1180,555 L 1180,555" fill="none" stroke="#16a34a" stroke-width="1.7" marker-end="url(#arrow-green)"/>
<rect x="1152.0" y="542.0" width="56" height="18" rx="4" fill="#ffffff" opacity="0.94"/>
<text x="1180.0" y="555.0" text-anchor="middle" class="rel-label">供应商映射</text>
<text x="1185.0" y="263.0" text-anchor="middle" class="cardinality">1</text>
<text x="1180.0" y="548.0" text-anchor="middle" class="cardinality">N</text>
<path d="M 725,254 L 725,300 L 460,300 L 460,345" fill="none" stroke="#ea580c" stroke-width="1.7" marker-end="url(#arrow-orange)"/>
<rect x="432.0" y="287.0" width="56" height="18" rx="4" fill="#ffffff" opacity="0.94"/>
<text x="460.0" y="300.0" text-anchor="middle" class="rel-label">报价配置</text>
<text x="725.0" y="247.0" text-anchor="middle" class="cardinality">1</text>
<text x="460.0" y="338.0" text-anchor="middle" class="cardinality">N</text>
<path d="M 280,422 L 310,422 L 310,422 L 340,422" fill="none" stroke="#ea580c" stroke-width="1.7" marker-end="url(#arrow-orange)"/>
<rect x="282.0" y="409.0" width="56" height="18" rx="4" fill="#ffffff" opacity="0.94"/>
<text x="310.0" y="422.0" text-anchor="middle" class="rel-label">售卖条件</text>
<text x="290.0" y="415.0" text-anchor="middle" class="cardinality">0..1</text>
<text x="330.0" y="415.0" text-anchor="middle" class="cardinality">N</text>
<path d="M 725,254 L 732,254 L 732,345 L 740,345" fill="none" stroke="#dc2626" stroke-width="1.7" marker-end="url(#arrow-orange)"/>
<rect x="704.5" y="286.5" width="56" height="18" rx="4" fill="#ffffff" opacity="0.94"/>
<text x="732.5" y="299.5" text-anchor="middle" class="rel-label">库存可售</text>
<text x="725.0" y="247.0" text-anchor="middle" class="cardinality">1</text>
<text x="740.0" y="338.0" text-anchor="middle" class="cardinality">1</text>
<path d="M 725,254 L 720,300 L 720,555 L 740,555" fill="none" stroke="#dc2626" stroke-width="1.7" marker-end="url(#arrow-orange)"/>
<rect x="692.0" y="542.0" width="56" height="18" rx="4" fill="#ffffff" opacity="0.94"/>
<text x="720.0" y="555.0" text-anchor="middle" class="rel-label">券码池</text>
<text x="725.0" y="247.0" text-anchor="middle" class="cardinality">1</text>
<text x="740.0" y="548.0" text-anchor="middle" class="cardinality">0..N</text>
<path d="M 580,422 L 900,422 L 900,794 L 915,794" fill="none" stroke="#16a34a" stroke-width="1.7" marker-end="url(#arrow-green)"/>
<rect x="872.0" y="781.0" width="56" height="18" rx="4" fill="#ffffff" opacity="0.94"/>
<text x="900.0" y="794.0" text-anchor="middle" class="rel-label">供给映射</text>
<text x="590.0" y="415.0" text-anchor="middle" class="cardinality">1</text>
<text x="905.0" y="787.0" text-anchor="middle" class="cardinality">N</text>
<path d="M 160,238 L 160,285 L 175,705 L 175,725" fill="none" stroke="#9333ea" stroke-width="1.7" marker-end="url(#arrow-purple)"/>
<rect x="147.0" y="692.0" width="56" height="18" rx="4" fill="#ffffff" opacity="0.94"/>
<text x="175.0" y="705.0" text-anchor="middle" class="rel-label">能力矩阵</text>
<text x="160.0" y="231.0" text-anchor="middle" class="cardinality">1</text>
<text x="175.0" y="718.0" text-anchor="middle" class="cardinality">1</text>
<path d="M 300,802 L 320,802 L 320,794 L 340,794" fill="none" stroke="#9333ea" stroke-width="1.7" marker-end="url(#arrow-purple)"/>
<rect x="292.0" y="785.0" width="56" height="18" rx="4" fill="#ffffff" opacity="0.94"/>
<text x="320.0" y="798.0" text-anchor="middle" class="rel-label">输入规则</text>
<text x="310.0" y="795.0" text-anchor="middle" class="cardinality">1</text>
<text x="330.0" y="787.0" text-anchor="middle" class="cardinality">1</text>
<path d="M 300,802 L 320,800 L 580,800 L 600,794" fill="none" stroke="#9333ea" stroke-width="1.7" marker-end="url(#arrow-purple)"/>
<rect x="552.0" y="787.0" width="56" height="18" rx="4" fill="#ffffff" opacity="0.94"/>
<text x="580.0" y="800.0" text-anchor="middle" class="rel-label">履约规则</text>
<text x="310.0" y="795.0" text-anchor="middle" class="cardinality">1</text>
<text x="590.0" y="787.0" text-anchor="middle" class="cardinality">1</text>
<path d="M 300,802 L 320,770 L 320,624 L 340,624" fill="none" stroke="#9333ea" stroke-width="1.7" marker-end="url(#arrow-purple)"/>
<rect x="292.0" y="611.0" width="56" height="18" rx="4" fill="#ffffff" opacity="0.94"/>
<text x="320.0" y="624.0" text-anchor="middle" class="rel-label">售后规则</text>
<text x="310.0" y="795.0" text-anchor="middle" class="cardinality">1</text>
<text x="330.0" y="617.0" text-anchor="middle" class="cardinality">1</text>
<g class="card">
<rect x="50" y="100" width="220" height="138" rx="8" ry="8" fill="#eff6ff" stroke="#bfdbfe" stroke-width="1.5"/>
<rect x="50" y="100" width="220" height="30" rx="8" ry="8" fill="#bfdbfe" opacity="0.55"/>
<path d="M 50,130 L 270,130" stroke="#bfdbfe" stroke-width="1.2"/>
<text x="160.0" y="120" text-anchor="middle" class="entity-title">category_tab</text>
<text x="62" y="150" class="pk">PK category_id</text>
<text x="62" y="166" class="attr">category_code</text>
<text x="62" y="182" class="attr">parent_id</text>
<text x="62" y="198" class="attr">level</text>
<text x="62" y="214" class="attr">name</text>
<text x="62" y="230" class="attr">status</text>
</g>
<g class="card">
<rect x="330" y="100" width="220" height="138" rx="8" ry="8" fill="#ffffff" stroke="#d1d5db" stroke-width="1.5"/>
<rect x="330" y="100" width="220" height="30" rx="8" ry="8" fill="#d1d5db" opacity="0.55"/>
<path d="M 330,130 L 550,130" stroke="#d1d5db" stroke-width="1.2"/>
<text x="440.0" y="120" text-anchor="middle" class="entity-title">product_spu_tab</text>
<text x="342" y="150" class="pk">PK spu_id</text>
<text x="342" y="166" class="fk">FK category_id</text>
<text x="342" y="182" class="attr">spu_code</text>
<text x="342" y="198" class="attr">title</text>
<text x="342" y="214" class="attr">brand_id</text>
<text x="342" y="230" class="attr">status</text>
</g>
<g class="card">
<rect x="610" y="100" width="230" height="154" rx="8" ry="8" fill="#ffffff" stroke="#d1d5db" stroke-width="1.5"/>
<rect x="610" y="100" width="230" height="30" rx="8" ry="8" fill="#d1d5db" opacity="0.55"/>
<path d="M 610,130 L 840,130" stroke="#d1d5db" stroke-width="1.2"/>
<text x="725.0" y="120" text-anchor="middle" class="entity-title">product_sku_tab</text>
<text x="622" y="150" class="pk">PK sku_id</text>
<text x="622" y="166" class="fk">FK spu_id</text>
<text x="622" y="182" class="attr">sku_code</text>
<text x="622" y="198" class="attr">base_price</text>
<text x="622" y="214" class="attr">inventory_type</text>
<text x="622" y="230" class="attr">fulfillment_type</text>
<text x="622" y="246" class="attr">status</text>
</g>
<g class="card">
<rect x="1060" y="100" width="250" height="170" rx="8" ry="8" fill="#f0fdf4" stroke="#bbf7d0" stroke-width="1.5"/>
<rect x="1060" y="100" width="250" height="30" rx="8" ry="8" fill="#bbf7d0" opacity="0.55"/>
<path d="M 1060,130 L 1310,130" stroke="#bbf7d0" stroke-width="1.2"/>
<text x="1185.0" y="120" text-anchor="middle" class="entity-title">resource_tab</text>
<text x="1072" y="150" class="pk">PK resource_id</text>
<text x="1072" y="166" class="attr">resource_type</text>
<text x="1072" y="182" class="attr">resource_code</text>
<text x="1072" y="198" class="attr">name</text>
<text x="1072" y="214" class="attr">parent_resource_id</text>
<text x="1072" y="230" class="attr">country_code / city_code</text>
<text x="1072" y="246" class="attr">status</text>
<text x="1072" y="262" class="attr">attributes(JSON)</text>
</g>
<g class="card">
<rect x="50" y="345" width="230" height="154" rx="8" ry="8" fill="#fff7ed" stroke="#fed7aa" stroke-width="1.5"/>
<rect x="50" y="345" width="230" height="30" rx="8" ry="8" fill="#fed7aa" opacity="0.55"/>
<path d="M 50,375 L 280,375" stroke="#fed7aa" stroke-width="1.2"/>
<text x="165.0" y="365" text-anchor="middle" class="entity-title">rate_plan_tab</text>
<text x="62" y="395" class="pk">PK rate_plan_id</text>
<text x="62" y="411" class="fk">FK category_id</text>
<text x="62" y="427" class="attr">plan_code</text>
<text x="62" y="443" class="attr">meal / cancel_policy</text>
<text x="62" y="459" class="attr">payment_type</text>
<text x="62" y="475" class="attr">constraints(JSON)</text>
<text x="62" y="491" class="attr">status</text>
</g>
<g class="card">
<rect x="340" y="345" width="240" height="154" rx="8" ry="8" fill="#fff7ed" stroke="#fed7aa" stroke-width="1.5"/>
<rect x="340" y="345" width="240" height="30" rx="8" ry="8" fill="#fed7aa" opacity="0.55"/>
<path d="M 340,375 L 580,375" stroke="#fed7aa" stroke-width="1.2"/>
<text x="460.0" y="365" text-anchor="middle" class="entity-title">product_offer_tab</text>
<text x="352" y="395" class="pk">PK offer_id</text>
<text x="352" y="411" class="fk">FK sku_id</text>
<text x="352" y="427" class="fk">FK rate_plan_id</text>
<text x="352" y="443" class="attr">offer_type</text>
<text x="352" y="459" class="attr">price_rule</text>
<text x="352" y="475" class="attr">valid_time</text>
<text x="352" y="491" class="attr">status</text>
</g>
<g class="card">
<rect x="630" y="345" width="220" height="138" rx="8" ry="8" fill="#fef2f2" stroke="#fecaca" stroke-width="1.5"/>
<rect x="630" y="345" width="220" height="30" rx="8" ry="8" fill="#fecaca" opacity="0.55"/>
<path d="M 630,375 L 850,375" stroke="#fecaca" stroke-width="1.2"/>
<text x="740.0" y="365" text-anchor="middle" class="entity-title">product_stock_tab</text>
<text x="642" y="395" class="pk">PK stock_id</text>
<text x="642" y="411" class="fk">FK sku_id</text>
<text x="642" y="427" class="attr">stock_type</text>
<text x="642" y="443" class="attr">source_type</text>
<text x="642" y="459" class="attr">quantity</text>
<text x="642" y="475" class="attr">sellable</text>
<text x="642" y="491" class="attr">updated_at</text>
</g>
<g class="card">
<rect x="630" y="555" width="220" height="138" rx="8" ry="8" fill="#fef2f2" stroke="#fecaca" stroke-width="1.5"/>
<rect x="630" y="555" width="220" height="30" rx="8" ry="8" fill="#fecaca" opacity="0.55"/>
<path d="M 630,585 L 850,585" stroke="#fecaca" stroke-width="1.2"/>
<text x="740.0" y="575" text-anchor="middle" class="entity-title">voucher_code_pool_tab</text>
<text x="642" y="605" class="pk">PK code_id</text>
<text x="642" y="621" class="fk">FK sku_id</text>
<text x="642" y="637" class="attr">code_status</text>
<text x="642" y="653" class="attr">expire_at</text>
<text x="642" y="669" class="attr">assigned_order_id</text>
<text x="642" y="685" class="attr">redeem_status</text>
</g>
<g class="card">
<rect x="920" y="345" width="250" height="154" rx="8" ry="8" fill="#f0fdfa" stroke="#99f6e4" stroke-width="1.5"/>
<rect x="920" y="345" width="250" height="30" rx="8" ry="8" fill="#99f6e4" opacity="0.55"/>
<path d="M 920,375 L 1170,375" stroke="#99f6e4" stroke-width="1.2"/>
<text x="1045.0" y="365" text-anchor="middle" class="entity-title">product_resource_mapping_tab</text>
<text x="932" y="395" class="pk">PK id</text>
<text x="932" y="411" class="fk">FK spu_id / sku_id</text>
<text x="932" y="427" class="fk">FK resource_id</text>
<text x="932" y="443" class="attr">relation_type</text>
<text x="932" y="459" class="attr">priority</text>
<text x="932" y="475" class="attr">status</text>
<text x="932" y="491" class="attr">created_at</text>
</g>
<g class="card">
<rect x="1185" y="345" width="170" height="138" rx="8" ry="8" fill="#f0fdfa" stroke="#99f6e4" stroke-width="1.5"/>
<rect x="1185" y="345" width="170" height="30" rx="8" ry="8" fill="#99f6e4" opacity="0.55"/>
<path d="M 1185,375 L 1355,375" stroke="#99f6e4" stroke-width="1.2"/>
<text x="1270.0" y="365" text-anchor="middle" class="entity-title">resource_relation_tab</text>
<text x="1197" y="395" class="pk">PK id</text>
<text x="1197" y="411" class="fk">FK from_resource_id</text>
<text x="1197" y="427" class="fk">FK to_resource_id</text>
<text x="1197" y="443" class="attr">relation_type</text>
<text x="1197" y="459" class="attr">status</text>
</g>
<g class="card">
<rect x="1055" y="555" width="250" height="154" rx="8" ry="8" fill="#f0fdfa" stroke="#99f6e4" stroke-width="1.5"/>
<rect x="1055" y="555" width="250" height="30" rx="8" ry="8" fill="#99f6e4" opacity="0.55"/>
<path d="M 1055,585 L 1305,585" stroke="#99f6e4" stroke-width="1.2"/>
<text x="1180.0" y="575" text-anchor="middle" class="entity-title">supplier_resource_mapping_tab</text>
<text x="1067" y="605" class="pk">PK id</text>
<text x="1067" y="621" class="fk">FK resource_id</text>
<text x="1067" y="637" class="attr">supplier_id</text>
<text x="1067" y="653" class="attr">supplier_resource_code</text>
<text x="1067" y="669" class="attr">supplier_resource_type</text>
<text x="1067" y="685" class="attr">status</text>
</g>
<g class="card">
<rect x="915" y="725" width="255" height="138" rx="8" ry="8" fill="#f0fdfa" stroke="#99f6e4" stroke-width="1.5"/>
<rect x="915" y="725" width="255" height="30" rx="8" ry="8" fill="#99f6e4" opacity="0.55"/>
<path d="M 915,755 L 1170,755" stroke="#99f6e4" stroke-width="1.2"/>
<text x="1042.5" y="745" text-anchor="middle" class="entity-title">supplier_product_mapping_tab</text>
<text x="927" y="775" class="pk">PK id</text>
<text x="927" y="791" class="fk">FK sku_id / offer_id</text>
<text x="927" y="807" class="attr">supplier_id</text>
<text x="927" y="823" class="attr">supplier_product_code</text>
<text x="927" y="839" class="attr">mapping_status</text>
<text x="927" y="855" class="attr">ext_ref(JSON)</text>
</g>
<g class="card">
<rect x="50" y="725" width="250" height="154" rx="8" ry="8" fill="#faf5ff" stroke="#ddd6fe" stroke-width="1.5"/>
<rect x="50" y="725" width="250" height="30" rx="8" ry="8" fill="#ddd6fe" opacity="0.55"/>
<path d="M 50,755 L 300,755" stroke="#ddd6fe" stroke-width="1.2"/>
<text x="175.0" y="745" text-anchor="middle" class="entity-title">category_capability_tab</text>
<text x="62" y="775" class="pk">PK capability_id</text>
<text x="62" y="791" class="fk">FK category_id</text>
<text x="62" y="807" class="attr">product_model_type</text>
<text x="62" y="823" class="attr">offer_type</text>
<text x="62" y="839" class="attr">availability_type</text>
<text x="62" y="855" class="attr">booking_mode</text>
<text x="62" y="871" class="attr">supplier_dependency</text>
</g>
<g class="card">
<rect x="340" y="725" width="220" height="138" rx="8" ry="8" fill="#faf5ff" stroke="#ddd6fe" stroke-width="1.5"/>
<rect x="340" y="725" width="220" height="30" rx="8" ry="8" fill="#ddd6fe" opacity="0.55"/>
<path d="M 340,755 L 560,755" stroke="#ddd6fe" stroke-width="1.2"/>
<text x="450.0" y="745" text-anchor="middle" class="entity-title">input_schema_tab</text>
<text x="352" y="775" class="pk">PK schema_id</text>
<text x="352" y="791" class="fk">FK category_id</text>
<text x="352" y="807" class="attr">scene</text>
<text x="352" y="823" class="attr">fields(JSON)</text>
<text x="352" y="839" class="attr">validation_rules</text>
<text x="352" y="855" class="attr">status</text>
</g>
<g class="card">
<rect x="600" y="725" width="220" height="138" rx="8" ry="8" fill="#faf5ff" stroke="#ddd6fe" stroke-width="1.5"/>
<rect x="600" y="725" width="220" height="30" rx="8" ry="8" fill="#ddd6fe" opacity="0.55"/>
<path d="M 600,755 L 820,755" stroke="#ddd6fe" stroke-width="1.2"/>
<text x="710.0" y="745" text-anchor="middle" class="entity-title">fulfillment_rule_tab</text>
<text x="612" y="775" class="pk">PK rule_id</text>
<text x="612" y="791" class="fk">FK category_id</text>
<text x="612" y="807" class="attr">fulfillment_type</text>
<text x="612" y="823" class="attr">mode</text>
<text x="612" y="839" class="attr">timeout_sec</text>
<text x="612" y="855" class="attr">params(JSON)</text>
</g>
<g class="card">
<rect x="340" y="555" width="220" height="138" rx="8" ry="8" fill="#faf5ff" stroke="#ddd6fe" stroke-width="1.5"/>
<rect x="340" y="555" width="220" height="30" rx="8" ry="8" fill="#ddd6fe" opacity="0.55"/>
<path d="M 340,585 L 560,585" stroke="#ddd6fe" stroke-width="1.2"/>
<text x="450.0" y="575" text-anchor="middle" class="entity-title">refund_rule_tab</text>
<text x="352" y="605" class="pk">PK refund_rule_id</text>
<text x="352" y="621" class="fk">FK category_id</text>
<text x="352" y="637" class="attr">refundable</text>
<text x="352" y="653" class="attr">need_review</text>
<text x="352" y="669" class="attr">policy(JSON)</text>
<text x="352" y="685" class="attr">status</text>
</g>
<g transform="translate(1130, 820)">
<rect x="0" y="0" width="220" height="70" rx="8" fill="#ffffff" stroke="#e5e7eb"/>
<line x1="14" y1="18" x2="50" y2="18" stroke="#2563eb" stroke-width="1.7" marker-end="url(#arrow-blue)"/><text x="58" y="22" class="rel-label">商品定义关系</text>
<line x1="14" y1="36" x2="50" y2="36" stroke="#16a34a" stroke-width="1.7" marker-end="url(#arrow-green)"/><text x="58" y="40" class="rel-label">资源/供应商映射</text>
<line x1="14" y1="54" x2="50" y2="54" stroke="#9333ea" stroke-width="1.7" marker-end="url(#arrow-purple)"/><text x="58" y="58" class="rel-label">交易前契约</text>
</g>
</svg>