<svg xmlns="http://www.w3.org/2000/svg" width="1800" height="1120" viewBox="0 0 1800 1120">
<defs>
<marker id="arrow-2563eb" markerWidth="12" markerHeight="12" refX="10" refY="6" orient="auto" markerUnits="strokeWidth"><path d="M2,2 L10,6 L2,10 Z" fill="#2563eb"/></marker>
<marker id="arrow-7c3aed" markerWidth="12" markerHeight="12" refX="10" refY="6" orient="auto" markerUnits="strokeWidth"><path d="M2,2 L10,6 L2,10 Z" fill="#7c3aed"/></marker>
<marker id="arrow-16a34a" markerWidth="12" markerHeight="12" refX="10" refY="6" orient="auto" markerUnits="strokeWidth"><path d="M2,2 L10,6 L2,10 Z" fill="#16a34a"/></marker>
<marker id="arrow-dc2626" markerWidth="12" markerHeight="12" refX="10" refY="6" orient="auto" markerUnits="strokeWidth"><path d="M2,2 L10,6 L2,10 Z" fill="#dc2626"/></marker>
<marker id="arrow-ea580c" markerWidth="12" markerHeight="12" refX="10" refY="6" orient="auto" markerUnits="strokeWidth"><path d="M2,2 L10,6 L2,10 Z" fill="#ea580c"/></marker>
<style>text{font-family:-apple-system,BlinkMacSystemFont,'Segoe UI','PingFang SC','Microsoft YaHei',Arial,sans-serif;} </style>
</defs>
<rect width="1800" height="1120" fill="#ffffff"/>
<rect x="55" y="145" width="280" height="460" rx="10" fill="#eff6ff" stroke="#93c5fd" stroke-width="2"/>
<rect x="370" y="145" width="765" height="460" rx="10" fill="#faf5ff" stroke="#c4b5fd" stroke-width="2"/>
<rect x="1170" y="145" width="275" height="460" rx="10" fill="#f0fdf4" stroke="#86efac" stroke-width="2"/>
<rect x="1485" y="145" width="260" height="460" rx="10" fill="#fff1f2" stroke="#fca5a5" stroke-width="2"/>
<rect x="55" y="665" width="1690" height="250" rx="10" fill="#fff7ed" stroke="#fdba74" stroke-width="2"/>
<rect x="88" y="218" width="214" height="66" rx="10" fill="#ffffff" stroke="#93c5fd" stroke-width="2"/>
<rect x="88" y="316" width="214" height="66" rx="10" fill="#ffffff" stroke="#93c5fd" stroke-width="2"/>
<rect x="88" y="414" width="214" height="66" rx="10" fill="#ffffff" stroke="#93c5fd" stroke-width="2"/>
<rect x="88" y="512" width="214" height="66" rx="10" fill="#ffffff" stroke="#93c5fd" stroke-width="2"/>
<rect x="420" y="296" width="160" height="86" rx="10" fill="#ffffff" stroke="#a78bfa" stroke-width="2"/>
<rect x="420" y="452" width="160" height="76" rx="10" fill="#ffffff" stroke="#a78bfa" stroke-width="2"/>
<rect x="625" y="218" width="180" height="86" rx="10" fill="#ffffff" stroke="#a78bfa" stroke-width="2"/>
<rect x="625" y="405" width="180" height="86" rx="10" fill="#ffffff" stroke="#a78bfa" stroke-width="2"/>
<rect x="860" y="205" width="220" height="64" rx="10" fill="#ffffff" stroke="#a78bfa" stroke-width="2"/>
<rect x="860" y="296" width="220" height="64" rx="10" fill="#ffffff" stroke="#a78bfa" stroke-width="2"/>
<rect x="860" y="387" width="220" height="64" rx="10" fill="#ffffff" stroke="#a78bfa" stroke-width="2"/>
<rect x="860" y="478" width="220" height="64" rx="10" fill="#ffffff" stroke="#a78bfa" stroke-width="2"/>
<rect x="1205" y="230" width="205" height="78" rx="10" fill="#ffffff" stroke="#4ade80" stroke-width="2"/>
<rect x="1205" y="358" width="205" height="78" rx="10" fill="#ffffff" stroke="#4ade80" stroke-width="2"/>
<rect x="1205" y="486" width="205" height="78" rx="10" fill="#ffffff" stroke="#4ade80" stroke-width="2"/>
<rect x="1518" y="230" width="195" height="78" rx="10" fill="#ffffff" stroke="#fb7185" stroke-width="2"/>
<rect x="1518" y="358" width="195" height="78" rx="10" fill="#ffffff" stroke="#fb7185" stroke-width="2"/>
<rect x="1518" y="486" width="195" height="78" rx="10" fill="#ffffff" stroke="#fb7185" stroke-width="2"/>
<rect x="100" y="720" width="1600" height="54" rx="10" fill="#ffffff" stroke="#fb923c" stroke-width="2"/>
<rect x="100" y="830" width="185" height="64" rx="10" fill="#ffffff" stroke="#fb923c" stroke-width="2"/>
<rect x="330" y="830" width="185" height="64" rx="10" fill="#ffffff" stroke="#fb923c" stroke-width="2"/>
<rect x="560" y="830" width="185" height="64" rx="10" fill="#ffffff" stroke="#fb923c" stroke-width="2"/>
<rect x="790" y="830" width="185" height="64" rx="10" fill="#ffffff" stroke="#fb923c" stroke-width="2"/>
<rect x="1020" y="830" width="185" height="64" rx="10" fill="#ffffff" stroke="#fb923c" stroke-width="2"/>
<rect x="1250" y="830" width="185" height="64" rx="10" fill="#ffffff" stroke="#fb923c" stroke-width="2"/>
<rect x="1480" y="830" width="185" height="64" rx="10" fill="#ffffff" stroke="#fb923c" stroke-width="2"/>
<line x1="302" y1="251" x2="420" y2="339" stroke="#2563eb" stroke-width="2" marker-end="url(#arrow-2563eb)"/>
<line x1="302" y1="349" x2="420" y2="339" stroke="#2563eb" stroke-width="2" marker-end="url(#arrow-2563eb)"/>
<line x1="302" y1="447" x2="420" y2="339" stroke="#2563eb" stroke-width="2" marker-end="url(#arrow-2563eb)"/>
<line x1="302" y1="545" x2="420" y2="339" stroke="#2563eb" stroke-width="2" marker-end="url(#arrow-2563eb)"/>
<line x1="580" y1="320" x2="625" y2="260" stroke="#2563eb" stroke-width="2" marker-end="url(#arrow-2563eb)"/>
<line x1="580" y1="360" x2="625" y2="448" stroke="#2563eb" stroke-width="2" marker-end="url(#arrow-2563eb)"/>
<line x1="580" y1="490" x2="860" y2="328" stroke="#7c3aed" stroke-width="2" stroke-dasharray="8 8" marker-end="url(#arrow-7c3aed)"/>
<line x1="805" y1="260" x2="860" y2="237" stroke="#2563eb" stroke-width="2" marker-end="url(#arrow-2563eb)"/>
<line x1="805" y1="448" x2="860" y2="328" stroke="#2563eb" stroke-width="2" marker-end="url(#arrow-2563eb)"/>
<line x1="970" y1="269" x2="970" y2="296" stroke="#2563eb" stroke-width="2" marker-end="url(#arrow-2563eb)"/>
<line x1="970" y1="360" x2="970" y2="387" stroke="#2563eb" stroke-width="2" marker-end="url(#arrow-2563eb)"/>
<line x1="970" y1="451" x2="970" y2="478" stroke="#2563eb" stroke-width="2" marker-end="url(#arrow-2563eb)"/>
<line x1="1080" y1="510" x2="1205" y2="270" stroke="#16a34a" stroke-width="2" marker-end="url(#arrow-16a34a)"/>
<line x1="1308" y1="308" x2="1308" y2="358" stroke="#16a34a" stroke-width="2" marker-end="url(#arrow-16a34a)"/>
<line x1="1308" y1="436" x2="1308" y2="486" stroke="#16a34a" stroke-width="2" marker-end="url(#arrow-16a34a)"/>
<line x1="1615" y1="308" x2="1615" y2="358" stroke="#dc2626" stroke-width="2" stroke-dasharray="8 8" marker-end="url(#arrow-dc2626)"/>
<line x1="1615" y1="486" x2="1615" y2="308" stroke="#dc2626" stroke-width="2" stroke-dasharray="8 8" marker-end="url(#arrow-dc2626)"/>
<line x1="1308" y1="564" x2="1308" y2="720" stroke="#16a34a" stroke-width="2" marker-end="url(#arrow-16a34a)"/>
<line x1="192.5" y1="774" x2="192.5" y2="830" stroke="#ea580c" stroke-width="2" marker-end="url(#arrow-ea580c)"/>
<line x1="422.5" y1="774" x2="422.5" y2="830" stroke="#ea580c" stroke-width="2" marker-end="url(#arrow-ea580c)"/>
<line x1="652.5" y1="774" x2="652.5" y2="830" stroke="#ea580c" stroke-width="2" marker-end="url(#arrow-ea580c)"/>
<line x1="882.5" y1="774" x2="882.5" y2="830" stroke="#ea580c" stroke-width="2" marker-end="url(#arrow-ea580c)"/>
<line x1="1112.5" y1="774" x2="1112.5" y2="830" stroke="#ea580c" stroke-width="2" marker-end="url(#arrow-ea580c)"/>
<line x1="1342.5" y1="774" x2="1342.5" y2="830" stroke="#ea580c" stroke-width="2" marker-end="url(#arrow-ea580c)"/>
<line x1="1572.5" y1="774" x2="1572.5" y2="830" stroke="#ea580c" stroke-width="2" marker-end="url(#arrow-ea580c)"/>
<path d="M 1080 420 L 1145 420 L 1145 205 L 1518 205 L 1518 269" fill="none" stroke="#dc2626" stroke-width="2" stroke-dasharray="8 8" marker-end="url(#arrow-dc2626)"/>
<path d="M 1410 270 L 1465 270 L 1465 397 L 1518 397" fill="none" stroke="#dc2626" stroke-width="2" stroke-dasharray="8 8" marker-end="url(#arrow-dc2626)"/>
<path d="M 1518 397 L 1455 397 L 1455 625 L 715 625 L 715 491" fill="none" stroke="#dc2626" stroke-width="2" stroke-dasharray="8 8" marker-end="url(#arrow-dc2626)"/>
<line x1="1572.5" y1="830" x2="1615" y2="564" stroke="#dc2626" stroke-width="2" stroke-dasharray="8 8" marker-end="url(#arrow-dc2626)"/>
<text x="900" y="59.260000000000005" text-anchor="middle" font-size="34" font-weight="800" fill="#111827">商品供给与运营治理平台总体架构</text>
<text x="900" y="92.24" text-anchor="middle" font-size="16" font-weight="700" fill="#6b7280">四类供给入口统一收敛；线上发布只走版本化事务；失败、风险和质量问题进入治理闭环</text>
<text x="194.5" y="181.58" text-anchor="middle" font-size="22" font-weight="800" fill="#1d4ed8">供给入口层</text>
<text x="410" y="181.58" text-anchor="start" font-size="22" font-weight="800" fill="#7c3aed">供给治理控制面</text>
<text x="1307" y="181.58" text-anchor="middle" font-size="22" font-weight="800" fill="#15803d">版本化发布</text>
<text x="1615" y="181.58" text-anchor="middle" font-size="22" font-weight="800" fill="#dc2626">治理闭环</text>
<text x="88" y="705.58" text-anchor="start" font-size="22" font-weight="800" fill="#c2410c">下游读模型与交易链路</text>
<text x="195" y="246.63" text-anchor="middle" font-size="17" font-weight="700" fill="#111827">人工创建 / 上传</text>
<text x="195" y="263.75" text-anchor="middle" font-size="12.5" font-weight="500" fill="#4b5563">运营、商家表单草稿</text>
<text x="195" y="279" text-anchor="middle" font-size="12.5" font-weight="500" fill="#4b5563">小批量、高完整性</text>
<text x="195" y="344.63" text-anchor="middle" font-size="17" font-weight="700" fill="#111827">批量导入</text>
<text x="195" y="361.75" text-anchor="middle" font-size="12.5" font-weight="500" fill="#4b5563">Excel / CSV / 模板版本</text>
<text x="195" y="377" text-anchor="middle" font-size="12.5" font-weight="500" fill="#4b5563">大批量、行级失败</text>
<text x="195" y="442.63" text-anchor="middle" font-size="17" font-weight="700" fill="#111827">运营编辑</text>
<text x="195" y="459.75" text-anchor="middle" font-size="12.5" font-weight="500" fill="#4b5563">线上版本 + 字段 Diff</text>
<text x="195" y="475" text-anchor="middle" font-size="12.5" font-weight="500" fill="#4b5563">覆盖、回滚、审核</text>
<text x="195" y="540.63" text-anchor="middle" font-size="17" font-weight="700" fill="#111827">供应商同步</text>
<text x="195" y="557.75" text-anchor="middle" font-size="12.5" font-weight="500" fill="#4b5563">全量 / 增量 / Push / 刷新</text>
<text x="195" y="573" text-anchor="middle" font-size="12.5" font-weight="500" fill="#4b5563">Checkpoint 专项链路</text>
<text x="500" y="324.63" text-anchor="middle" font-size="17" font-weight="700" fill="#111827">统一供给 API</text>
<text x="500" y="351.75" text-anchor="middle" font-size="12.5" font-weight="500" fill="#4b5563">鉴权 / 幂等 / TraceID</text>
<text x="500" y="367" text-anchor="middle" font-size="12.5" font-weight="500" fill="#4b5563">task_type 路由</text>
<text x="500" y="480.63" text-anchor="middle" font-size="17" font-weight="700" fill="#111827">类目模板</text>
<text x="500" y="502.75" text-anchor="middle" font-size="12.5" font-weight="500" fill="#4b5563">字段 Schema</text>
<text x="500" y="518" text-anchor="middle" font-size="12.5" font-weight="500" fill="#4b5563">能力矩阵 / 必填对象</text>
<text x="715" y="246.63" text-anchor="middle" font-size="17" font-weight="700" fill="#111827">Draft / Staging</text>
<text x="715" y="273.75" text-anchor="middle" font-size="12.5" font-weight="500" fill="#4b5563">线上隔离暂存</text>
<text x="715" y="289" text-anchor="middle" font-size="12.5" font-weight="500" fill="#4b5563">raw + normalized snapshot</text>
<text x="715" y="433.63" text-anchor="middle" font-size="17" font-weight="700" fill="#111827">Supply Task</text>
<text x="715" y="460.75" text-anchor="middle" font-size="12.5" font-weight="500" fill="#4b5563">task / item / progress</text>
<text x="715" y="476" text-anchor="middle" font-size="12.5" font-weight="500" fill="#4b5563">错误文件 / 行级状态</text>
<text x="970" y="233.63" text-anchor="middle" font-size="17" font-weight="700" fill="#111827">标准化</text>
<text x="970" y="257.375" text-anchor="middle" font-size="12.5" font-weight="500" fill="#4b5563">Resource / SPU / SKU / Offer / Rule</text>
<text x="970" y="324.63" text-anchor="middle" font-size="17" font-weight="700" fill="#111827">质量校验</text>
<text x="970" y="348.375" text-anchor="middle" font-size="12.5" font-weight="500" fill="#4b5563">Schema / 主数据 / 交易契约 / 可售</text>
<text x="970" y="415.63" text-anchor="middle" font-size="17" font-weight="700" fill="#111827">Diff &amp; 风险评分</text>
<text x="970" y="439.375" text-anchor="middle" font-size="12.5" font-weight="500" fill="#4b5563">字段主权 / 价格 / 类目 / 退款</text>
<text x="970" y="506.63" text-anchor="middle" font-size="17" font-weight="700" fill="#111827">审核决策</text>
<text x="970" y="530.375" text-anchor="middle" font-size="12.5" font-weight="500" fill="#4b5563">低风险自动，高风险人工审核</text>
<text x="1307.5" y="258.63" text-anchor="middle" font-size="17" font-weight="700" fill="#111827">发布事务</text>
<text x="1307.5" y="281.75" text-anchor="middle" font-size="12.5" font-weight="500" fill="#4b5563">正式表 + Outbox</text>
<text x="1307.5" y="297" text-anchor="middle" font-size="12.5" font-weight="500" fill="#4b5563">同事务提交</text>
<text x="1307.5" y="386.63" text-anchor="middle" font-size="17" font-weight="700" fill="#111827">发布版本 / 快照</text>
<text x="1307.5" y="409.75" text-anchor="middle" font-size="12.5" font-weight="500" fill="#4b5563">publish_version</text>
<text x="1307.5" y="425" text-anchor="middle" font-size="12.5" font-weight="500" fill="#4b5563">product_snapshot</text>
<text x="1307.5" y="514.63" text-anchor="middle" font-size="17" font-weight="700" fill="#111827">交易前契约</text>
<text x="1307.5" y="537.75" text-anchor="middle" font-size="12.5" font-weight="500" fill="#4b5563">Input / Fulfillment</text>
<text x="1307.5" y="553" text-anchor="middle" font-size="12.5" font-weight="500" fill="#4b5563">Refund / Sellable</text>
<text x="1615.5" y="258.63" text-anchor="middle" font-size="17" font-weight="700" fill="#111827">DLQ / 错误文件</text>
<text x="1615.5" y="281.75" text-anchor="middle" font-size="12.5" font-weight="500" fill="#4b5563">字段错误 / 映射失败</text>
<text x="1615.5" y="297" text-anchor="middle" font-size="12.5" font-weight="500" fill="#4b5563">修复后重新投递</text>
<text x="1615.5" y="386.63" text-anchor="middle" font-size="17" font-weight="700" fill="#111827">补偿任务</text>
<text x="1615.5" y="409.75" text-anchor="middle" font-size="12.5" font-weight="500" fill="#4b5563">索引、缓存、发布</text>
<text x="1615.5" y="425" text-anchor="middle" font-size="12.5" font-weight="500" fill="#4b5563">失败可重试</text>
<text x="1615.5" y="514.63" text-anchor="middle" font-size="17" font-weight="700" fill="#111827">质量巡检 / 报表</text>
<text x="1615.5" y="537.75" text-anchor="middle" font-size="12.5" font-weight="500" fill="#4b5563">缺图 / 缺价 / 无库存</text>
<text x="1615.5" y="553" text-anchor="middle" font-size="12.5" font-weight="500" fill="#4b5563">TraceID / SLA</text>
<text x="900" y="743.63" text-anchor="middle" font-size="17" font-weight="700" fill="#c2410c">Outbox / ProductChanged Event Bus</text>
<text x="900" y="761.875" text-anchor="middle" font-size="12.5" font-weight="500" fill="#4b5563">商品发布事件、索引刷新、缓存失效、计价上下文、订单快照、数据平台 CDC 统一从事件总线消费</text>
<text x="192.5" y="857.63" text-anchor="middle" font-size="17" font-weight="700" fill="#111827">商品主数据</text>
<text x="192.5" y="880.875" text-anchor="middle" font-size="12.5" font-weight="500" fill="#4b5563">Resource / SPU / SKU / Offer</text>
<text x="422.5" y="857.63" text-anchor="middle" font-size="17" font-weight="700" fill="#111827">供应商 / 商家映射</text>
<text x="422.5" y="880.875" text-anchor="middle" font-size="12.5" font-weight="500" fill="#4b5563">supplier / merchant mapping</text>
<text x="652.5" y="857.63" text-anchor="middle" font-size="17" font-weight="700" fill="#111827">搜索索引</text>
<text x="652.5" y="880.875" text-anchor="middle" font-size="12.5" font-weight="500" fill="#4b5563">ES refresh / 可见性</text>
<text x="882.5" y="857.63" text-anchor="middle" font-size="17" font-weight="700" fill="#111827">商品缓存</text>
<text x="882.5" y="880.875" text-anchor="middle" font-size="12.5" font-weight="500" fill="#4b5563">cache invalidation</text>
<text x="1112.5" y="857.63" text-anchor="middle" font-size="17" font-weight="700" fill="#111827">计价 / 营销</text>
<text x="1112.5" y="880.875" text-anchor="middle" font-size="12.5" font-weight="500" fill="#4b5563">pricing context / campaign</text>
<text x="1342.5" y="857.63" text-anchor="middle" font-size="17" font-weight="700" fill="#111827">订单快照</text>
<text x="1342.5" y="880.875" text-anchor="middle" font-size="12.5" font-weight="500" fill="#4b5563">商品 / 报价 / 契约快照</text>
<text x="1572.5" y="857.63" text-anchor="middle" font-size="17" font-weight="700" fill="#111827">数据平台</text>
<text x="1572.5" y="880.875" text-anchor="middle" font-size="12.5" font-weight="500" fill="#4b5563">CDC / 质量报表</text>
<text x="602.5" y="395.68" text-anchor="middle" font-size="12" font-weight="500" fill="#2563eb">创建任务</text>
<text x="720" y="400.68" text-anchor="middle" font-size="12" font-weight="500" fill="#7c3aed">模板约束</text>
<text x="1142.5" y="381.68" text-anchor="middle" font-size="12" font-weight="500" fill="#16a34a">审核通过</text>
<text x="95" y="990.63" text-anchor="start" font-size="17" font-weight="700" fill="#374151">核心原则：入口统一、线上隔离、差异化审核、版本化发布、Outbox 保证最终一致、质量治理闭环补偿</text>
<text x="95" y="1039.24" text-anchor="start" font-size="16" font-weight="700" fill="#111827">图例</text>
<text x="190" y="1038.46" text-anchor="start" font-size="14" font-weight="500" fill="#2563eb">蓝：主处理链路</text>
<text x="365" y="1038.46" text-anchor="start" font-size="14" font-weight="500" fill="#16a34a">绿：正式发布写入</text>
<text x="560" y="1038.46" text-anchor="start" font-size="14" font-weight="500" fill="#ea580c">橙：事件扇出刷新</text>
<text x="775" y="1038.46" text-anchor="start" font-size="14" font-weight="500" fill="#dc2626">红：失败补偿与巡检</text>
<text x="1401" y="651.68" text-anchor="middle" font-size="12" font-weight="500" fill="#16a34a">发布事件</text>
<text x="1330" y="203.68" text-anchor="middle" font-size="12" font-weight="500" fill="#dc2626">校验 / 审核失败</text>
<text x="1509" y="335.68" text-anchor="middle" font-size="12" font-weight="500" fill="#dc2626">发布失败</text>
<text x="1080" y="620.68" text-anchor="middle" font-size="12" font-weight="500" fill="#dc2626">修复重投</text>
<text x="1709" y="713.68" text-anchor="middle" font-size="12" font-weight="500" fill="#dc2626">一致性巡检</text>
</svg>
