<svg xmlns="http://www.w3.org/2000/svg" width="1800" height="1120" viewBox="0 0 1800 1120">
<defs>
<marker id="arrow-2563eb" markerWidth="12" markerHeight="12" refX="10" refY="6" orient="auto" markerUnits="strokeWidth"><path d="M2,2 L10,6 L2,10 Z" fill="#2563eb"/></marker>
<marker id="arrow-16a34a" markerWidth="12" markerHeight="12" refX="10" refY="6" orient="auto" markerUnits="strokeWidth"><path d="M2,2 L10,6 L2,10 Z" fill="#16a34a"/></marker>
<marker id="arrow-9333ea" markerWidth="12" markerHeight="12" refX="10" refY="6" orient="auto" markerUnits="strokeWidth"><path d="M2,2 L10,6 L2,10 Z" fill="#9333ea"/></marker>
<marker id="arrow-dc2626" markerWidth="12" markerHeight="12" refX="10" refY="6" orient="auto" markerUnits="strokeWidth"><path d="M2,2 L10,6 L2,10 Z" fill="#dc2626"/></marker>
<marker id="arrow-ea580c" markerWidth="12" markerHeight="12" refX="10" refY="6" orient="auto" markerUnits="strokeWidth"><path d="M2,2 L10,6 L2,10 Z" fill="#ea580c"/></marker>
<marker id="arrow-0f766e" markerWidth="12" markerHeight="12" refX="10" refY="6" orient="auto" markerUnits="strokeWidth"><path d="M2,2 L10,6 L2,10 Z" fill="#0f766e"/></marker>
<style>text{font-family:'Helvetica Neue',Helvetica,Arial,'PingFang SC','Microsoft YaHei',sans-serif;}</style>
</defs>
<rect width="1800" height="1120" fill="#ffffff"/>
<text x="900" y="60.260000000000005" text-anchor="middle" font-size="34" font-weight="800" fill="#111827">供应商数据同步 Data Flow Diagram</text><text x="900" y="92.24" text-anchor="middle" font-size="16" font-weight="500" fill="#6b7280">数据对象逐层转换：Page Response → Raw Snapshot → Normalized Snapshot → Validation Result → Diff → Publish Event</text><rect x="55" y="130" width="1690" height="130" rx="12" fill="#eff6ff" stroke="#2563eb" stroke-width="2"/>
<text x="75" y="165.8" text-anchor="start" font-size="20" font-weight="800" fill="#2563eb">控制流：Batch 与 Checkpoint 驱动分页拉取</text><rect x="95" y="178" width="170" height="58" rx="10" fill="#fff" stroke="#2563eb" stroke-width="2"/>
<text x="180" y="204.24" text-anchor="middle" font-size="16" font-weight="750" fill="#111827">Batch Context</text>
<text x="180" y="226.875" text-anchor="middle" font-size="12.5" font-weight="500" fill="#4b5563">batch_id / task_code / version</text><rect x="320" y="178" width="185" height="58" rx="10" fill="#fff" stroke="#2563eb" stroke-width="2"/>
<text x="412.5" y="204.24" text-anchor="middle" font-size="16" font-weight="750" fill="#111827">Checkpoint</text>
<text x="412.5" y="226.875" text-anchor="middle" font-size="12.5" font-weight="500" fill="#4b5563">city / page / cursor / last_id</text><rect x="560" y="178" width="185" height="58" rx="10" fill="#fff" stroke="#2563eb" stroke-width="2"/>
<text x="652.5" y="204.24" text-anchor="middle" font-size="16" font-weight="750" fill="#111827">Fetch Command</text>
<text x="652.5" y="226.875" text-anchor="middle" font-size="12.5" font-weight="500" fill="#4b5563">supplier_id / city / page_size</text><path d="M 265 207 L 320 207" fill="none" stroke="#2563eb" stroke-width="2.4" marker-end="url(#arrow-2563eb)"/><path d="M 505 207 L 560 207" fill="none" stroke="#2563eb" stroke-width="2.4" marker-end="url(#arrow-2563eb)"/><rect x="55" y="300" width="1690" height="345" rx="12" fill="#f0fdf4" stroke="#16a34a" stroke-width="2"/>
<text x="75" y="335.8" text-anchor="start" font-size="20" font-weight="800" fill="#16a34a">主数据流：标准化、校验、映射、Diff</text><rect x="95" y="390" width="160" height="76" rx="10" fill="#fff" stroke="#16a34a" stroke-width="2"/>
<text x="175" y="416.24" text-anchor="middle" font-size="16" font-weight="750" fill="#111827">Supplier Page</text>
<text x="175" y="440.25" text-anchor="middle" font-size="12.5" font-weight="500" fill="#4b5563">hotels[]</text>
<text x="175" y="455.5" text-anchor="middle" font-size="12.5" font-weight="500" fill="#4b5563">next_cursor</text><rect x="295" y="390" width="170" height="76" rx="10" fill="#fff" stroke="#16a34a" stroke-width="2"/>
<text x="380" y="416.24" text-anchor="middle" font-size="16" font-weight="750" fill="#111827">Raw Payload</text>
<text x="380" y="440.25" text-anchor="middle" font-size="12.5" font-weight="500" fill="#4b5563">原始 JSON</text>
<text x="380" y="455.5" text-anchor="middle" font-size="12.5" font-weight="500" fill="#4b5563">page response</text><rect x="505" y="390" width="175" height="76" rx="10" fill="#fff" stroke="#16a34a" stroke-width="2"/>
<text x="592.5" y="416.24" text-anchor="middle" font-size="16" font-weight="750" fill="#111827">Raw Snapshot</text>
<text x="592.5" y="440.25" text-anchor="middle" font-size="12.5" font-weight="500" fill="#4b5563">payload_ref</text>
<text x="592.5" y="455.5" text-anchor="middle" font-size="12.5" font-weight="500" fill="#4b5563">payload_hash</text><rect x="720" y="390" width="185" height="76" rx="10" fill="#fff" stroke="#16a34a" stroke-width="2"/>
<text x="812.5" y="416.24" text-anchor="middle" font-size="16" font-weight="750" fill="#111827">Normalized Snapshot</text>
<text x="812.5" y="440.25" text-anchor="middle" font-size="12.5" font-weight="500" fill="#4b5563">平台字段</text>
<text x="812.5" y="455.5" text-anchor="middle" font-size="12.5" font-weight="500" fill="#4b5563">单位 / 枚举</text><rect x="945" y="390" width="185" height="76" rx="10" fill="#fff" stroke="#16a34a" stroke-width="2"/>
<text x="1037.5" y="416.24" text-anchor="middle" font-size="16" font-weight="750" fill="#111827">Validation Result</text>
<text x="1037.5" y="440.25" text-anchor="middle" font-size="12.5" font-weight="500" fill="#4b5563">valid_items</text>
<text x="1037.5" y="455.5" text-anchor="middle" font-size="12.5" font-weight="500" fill="#4b5563">failed_items</text><rect x="1170" y="390" width="175" height="76" rx="10" fill="#fff" stroke="#16a34a" stroke-width="2"/>
<text x="1257.5" y="416.24" text-anchor="middle" font-size="16" font-weight="750" fill="#111827">Mapping Result</text>
<text x="1257.5" y="440.25" text-anchor="middle" font-size="12.5" font-weight="500" fill="#4b5563">platform_resource_id</text>
<text x="1257.5" y="455.5" text-anchor="middle" font-size="12.5" font-weight="500" fill="#4b5563">spu / sku / offer</text><rect x="1385" y="390" width="160" height="76" rx="10" fill="#fff" stroke="#16a34a" stroke-width="2"/>
<text x="1465" y="416.24" text-anchor="middle" font-size="16" font-weight="750" fill="#111827">Diff Result</text>
<text x="1465" y="440.25" text-anchor="middle" font-size="12.5" font-weight="500" fill="#4b5563">changed_fields</text>
<text x="1465" y="455.5" text-anchor="middle" font-size="12.5" font-weight="500" fill="#4b5563">risk_level</text><rect x="1585" y="390" width="145" height="76" rx="10" fill="#fff" stroke="#16a34a" stroke-width="2"/>
<text x="1657.5" y="416.24" text-anchor="middle" font-size="16" font-weight="750" fill="#111827">Publish Candidate</text>
<text x="1657.5" y="440.25" text-anchor="middle" font-size="12.5" font-weight="500" fill="#4b5563">AUTO / REVIEW</text>
<text x="1657.5" y="455.5" text-anchor="middle" font-size="12.5" font-weight="500" fill="#4b5563">DLQ</text><path d="M 255 428 L 295 428" fill="none" stroke="#16a34a" stroke-width="2.4" marker-end="url(#arrow-16a34a)"/><path d="M 465 428 L 505 428" fill="none" stroke="#16a34a" stroke-width="2.4" marker-end="url(#arrow-16a34a)"/><path d="M 680 428 L 720 428" fill="none" stroke="#16a34a" stroke-width="2.4" marker-end="url(#arrow-16a34a)"/><path d="M 905 428 L 945 428" fill="none" stroke="#16a34a" stroke-width="2.4" marker-end="url(#arrow-16a34a)"/><path d="M 1130 428 L 1170 428" fill="none" stroke="#16a34a" stroke-width="2.4" marker-end="url(#arrow-16a34a)"/><path d="M 1345 428 L 1385 428" fill="none" stroke="#16a34a" stroke-width="2.4" marker-end="url(#arrow-16a34a)"/><path d="M 1545 428 L 1585 428" fill="none" stroke="#16a34a" stroke-width="2.4" marker-end="url(#arrow-16a34a)"/><path d="M 652 236 L 652 390" fill="none" stroke="#2563eb" stroke-width="2.4" stroke-dasharray="8 8" marker-end="url(#arrow-2563eb)"/>
<text x="725" y="311.68" text-anchor="middle" font-size="12" font-weight="650" fill="#2563eb">cursor 控制</text><rect x="505" y="540" width="540" height="70" rx="10" fill="#ffffff" stroke="#0f766e" stroke-width="2"/>
<text x="775" y="562.85" text-anchor="middle" font-size="15" font-weight="750" fill="#0f766e">数据版本与审计字段</text>
<text x="775" y="592.68" text-anchor="middle" font-size="12" font-weight="500" fill="#4b5563">sync_batch_version 标识一次同步；snapshot_version 标识原始/标准化快照；payload_hash 支持去重、追溯和回放</text><path d="M 592 466 L 592 540" fill="none" stroke="#0f766e" stroke-width="2.4" stroke-dasharray="8 8" marker-end="url(#arrow-0f766e)"/><path d="M 812 466 L 812 540" fill="none" stroke="#0f766e" stroke-width="2.4" stroke-dasharray="8 8" marker-end="url(#arrow-0f766e)"/><rect x="55" y="690" width="1690" height="150" rx="12" fill="#faf5ff" stroke="#9333ea" stroke-width="2"/>
<text x="75" y="725.8" text-anchor="start" font-size="20" font-weight="800" fill="#9333ea">发布数据流：可发布数据进入正式模型和下游读模型</text><rect x="150" y="745" width="180" height="62" rx="10" fill="#fff" stroke="#9333ea" stroke-width="2"/>
<text x="240" y="771.24" text-anchor="middle" font-size="16" font-weight="750" fill="#111827">Publish Command</text>
<text x="240" y="788.25" text-anchor="middle" font-size="12.5" font-weight="500" fill="#4b5563">AUTO_PUBLISH</text>
<text x="240" y="803.5" text-anchor="middle" font-size="12.5" font-weight="500" fill="#4b5563">resource changes</text><rect x="410" y="745" width="180" height="62" rx="10" fill="#fff" stroke="#9333ea" stroke-width="2"/>
<text x="500" y="771.24" text-anchor="middle" font-size="16" font-weight="750" fill="#111827">Product Model</text>
<text x="500" y="788.25" text-anchor="middle" font-size="12.5" font-weight="500" fill="#4b5563">Resource / SPU / SKU</text>
<text x="500" y="803.5" text-anchor="middle" font-size="12.5" font-weight="500" fill="#4b5563">Offer / Rule</text><rect x="670" y="745" width="180" height="62" rx="10" fill="#fff" stroke="#9333ea" stroke-width="2"/>
<text x="760" y="771.24" text-anchor="middle" font-size="16" font-weight="750" fill="#111827">Publish Snapshot</text>
<text x="760" y="788.25" text-anchor="middle" font-size="12.5" font-weight="500" fill="#4b5563">publish_version</text>
<text x="760" y="803.5" text-anchor="middle" font-size="12.5" font-weight="500" fill="#4b5563">product_snapshot</text><rect x="930" y="745" width="180" height="62" rx="10" fill="#fff" stroke="#9333ea" stroke-width="2"/>
<text x="1020" y="771.24" text-anchor="middle" font-size="16" font-weight="750" fill="#111827">Outbox Event</text>
<text x="1020" y="788.25" text-anchor="middle" font-size="12.5" font-weight="500" fill="#4b5563">HotelResourceUpdated</text>
<text x="1020" y="803.5" text-anchor="middle" font-size="12.5" font-weight="500" fill="#4b5563">IndexRefreshRequired</text><rect x="1190" y="745" width="180" height="62" rx="10" fill="#fff" stroke="#9333ea" stroke-width="2"/>
<text x="1280" y="771.24" text-anchor="middle" font-size="16" font-weight="750" fill="#111827">Read Models</text>
<text x="1280" y="788.25" text-anchor="middle" font-size="12.5" font-weight="500" fill="#4b5563">Search index</text>
<text x="1280" y="803.5" text-anchor="middle" font-size="12.5" font-weight="500" fill="#4b5563">Detail cache</text><rect x="1450" y="745" width="180" height="62" rx="10" fill="#fff" stroke="#9333ea" stroke-width="2"/>
<text x="1540" y="771.24" text-anchor="middle" font-size="16" font-weight="750" fill="#111827">Consumers</text>
<text x="1540" y="788.25" text-anchor="middle" font-size="12.5" font-weight="500" fill="#4b5563">Order / Pricing</text>
<text x="1540" y="803.5" text-anchor="middle" font-size="12.5" font-weight="500" fill="#4b5563">Marketing / BI</text><path d="M 330 776 L 410 776" fill="none" stroke="#9333ea" stroke-width="2.4" marker-end="url(#arrow-9333ea)"/><path d="M 590 776 L 670 776" fill="none" stroke="#9333ea" stroke-width="2.4" marker-end="url(#arrow-9333ea)"/><path d="M 850 776 L 930 776" fill="none" stroke="#9333ea" stroke-width="2.4" marker-end="url(#arrow-9333ea)"/><path d="M 1110 776 L 1190 776" fill="none" stroke="#9333ea" stroke-width="2.4" marker-end="url(#arrow-9333ea)"/><path d="M 1370 776 L 1450 776" fill="none" stroke="#9333ea" stroke-width="2.4" marker-end="url(#arrow-9333ea)"/><path d="M 1658 466 L 1658 625 L 240 625 L 240 745" fill="none" stroke="#9333ea" stroke-width="2.4" marker-end="url(#arrow-9333ea)"/>
<text x="920" y="619.68" text-anchor="middle" font-size="12" font-weight="650" fill="#9333ea">低风险或审核通过</text><rect x="55" y="875" width="1690" height="165" rx="12" fill="#fff7ed" stroke="#dc2626" stroke-width="2"/>
<text x="75" y="910.8" text-anchor="start" font-size="20" font-weight="800" fill="#dc2626">异常数据流：失败对象进入 DLQ，修复后按对象重投</text><rect x="95" y="935" width="470" height="58" rx="10" fill="#fff1f2" stroke="#dc2626" stroke-width="2"/>
<text x="330" y="957.85" text-anchor="middle" font-size="15" font-weight="750" fill="#dc2626">Dead Letter Item</text>
<text x="330" y="981.68" text-anchor="middle" font-size="12" font-weight="500" fill="#4b5563">error_stage / error_type / error_code / raw_payload_ref / normalized_payload_ref / retry_count</text><rect x="670" y="928" width="190" height="72" rx="10" fill="#ffffff" stroke="#dc2626" stroke-width="2"/>
<text x="765" y="954.24" text-anchor="middle" font-size="16" font-weight="750" fill="#dc2626">Retry / Manual Fix</text>
<text x="765" y="976.25" text-anchor="middle" font-size="12.5" font-weight="500" fill="#4b5563">RETRYING</text>
<text x="765" y="991.5" text-anchor="middle" font-size="12.5" font-weight="500" fill="#4b5563">MANUAL_FIX</text><rect x="970" y="928" width="190" height="72" rx="10" fill="#ffffff" stroke="#dc2626" stroke-width="2"/>
<text x="1065" y="954.24" text-anchor="middle" font-size="16" font-weight="750" fill="#dc2626">Replay Object</text>
<text x="1065" y="976.25" text-anchor="middle" font-size="12.5" font-weight="500" fill="#4b5563">supplier_resource_code</text>
<text x="1065" y="991.5" text-anchor="middle" font-size="12.5" font-weight="500" fill="#4b5563">raw_payload_ref</text><rect x="1260" y="935" width="430" height="58" rx="10" fill="#ffffff" stroke="#ea580c" stroke-width="2"/>
<text x="1475" y="957.85" text-anchor="middle" font-size="15" font-weight="750" fill="#ea580c">Quality Metrics</text>
<text x="1475" y="981.68" text-anchor="middle" font-size="12" font-weight="500" fill="#4b5563">字段缺失率、映射失败率、异常价格率、DLQ 修复率、数据新鲜度延迟</text><path d="M 565 964 L 670 964" fill="none" stroke="#dc2626" stroke-width="2.4" marker-end="url(#arrow-dc2626)"/><path d="M 860 964 L 970 964" fill="none" stroke="#dc2626" stroke-width="2.4" marker-end="url(#arrow-dc2626)"/><path d="M 1160 964 L 1260 964" fill="none" stroke="#ea580c" stroke-width="2.4" stroke-dasharray="8 8" marker-end="url(#arrow-ea580c)"/><path d="M 1065 928 L 1065 850 L 590 850 L 590 466" fill="none" stroke="#dc2626" stroke-width="2.4" stroke-dasharray="8 8" marker-end="url(#arrow-dc2626)"/>
<text x="825" y="841.68" text-anchor="middle" font-size="12" font-weight="650" fill="#dc2626">修复重投</text><rect x="95" y="850" width="1595" height="34" rx="10" fill="#fff1f2" stroke="#dc2626" stroke-width="2"/>
<text x="892.5" y="872.85" text-anchor="middle" font-size="15" font-weight="750" fill="#dc2626">失败来源：Validation failed / Mapping failed / HIGH_RISK blocked / Publish or Index failed，统一沉淀为可查询、可分派、可重试的 DLQ 对象</text>
<text x="90" y="1079.24" text-anchor="start" font-size="16" font-weight="650" fill="#374151">数据流原则：Checkpoint 只控制遍历水位，不替代幂等；Raw Snapshot 是证据；Normalized Snapshot 是治理输入；Publish Snapshot 是交易前契约；DLQ 保存可修复对象</text><rect x="1390" y="1060" width="20" height="8" rx="4" fill="#2563eb" stroke="#2563eb" stroke-width="1"/><text x="1418" y="1068.68" text-anchor="start" font-size="12" font-weight="650" fill="#2563eb">控制水位</text>
<rect x="1550" y="1060" width="20" height="8" rx="4" fill="#16a34a" stroke="#16a34a" stroke-width="1"/><text x="1578" y="1068.68" text-anchor="start" font-size="12" font-weight="650" fill="#16a34a">数据转换</text>
<rect x="1710" y="1060" width="20" height="8" rx="4" fill="#9333ea" stroke="#9333ea" stroke-width="1"/><text x="1738" y="1068.68" text-anchor="start" font-size="12" font-weight="650" fill="#9333ea">发布事件</text>
<rect x="1870" y="1060" width="20" height="8" rx="4" fill="#dc2626" stroke="#dc2626" stroke-width="1"/><text x="1898" y="1068.68" text-anchor="start" font-size="12" font-weight="650" fill="#dc2626">异常补偿</text></svg>
