<svg xmlns="http://www.w3.org/2000/svg" width="2100" height="1360" viewBox="0 0 2100 1360">
  <defs>
    <marker id="arrow-blue" markerWidth="12" markerHeight="12" refX="10" refY="6" orient="auto" markerUnits="strokeWidth">
      <path d="M2,2 L10,6 L2,10 Z" fill="#2563eb"/>
    </marker>
    <marker id="arrow-green" markerWidth="12" markerHeight="12" refX="10" refY="6" orient="auto" markerUnits="strokeWidth">
      <path d="M2,2 L10,6 L2,10 Z" fill="#059669"/>
    </marker>
    <marker id="arrow-orange" markerWidth="12" markerHeight="12" refX="10" refY="6" orient="auto" markerUnits="strokeWidth">
      <path d="M2,2 L10,6 L2,10 Z" fill="#ea580c"/>
    </marker>
    <style>
      text {
        font-family: -apple-system, BlinkMacSystemFont, "SF Pro Display", "Segoe UI", "PingFang SC", "Microsoft YaHei", Arial, sans-serif;
      }
      .title { font-size: 40px; font-weight: 800; fill: #111827; }
      .subtitle { font-size: 18px; font-weight: 500; fill: #475569; }
      .lane-title { font-size: 24px; font-weight: 800; fill: #1f2937; }
      .col-title { font-size: 24px; font-weight: 800; fill: #1e40af; }
      .box-title { font-size: 18px; font-weight: 750; fill: #111827; }
      .box-body { font-size: 12.5px; font-weight: 500; fill: #475569; }
      .section-label { font-size: 24px; font-weight: 800; fill: #0f172a; }
      .side-title { font-size: 26px; font-weight: 800; fill: #14532d; }
      .side-body { font-size: 13.5px; font-weight: 550; fill: #334155; }
      .note { font-size: 15px; font-weight: 650; fill: #374151; }
      .legend { font-size: 14px; font-weight: 650; }
    </style>
  </defs>

  <rect width="2100" height="1360" fill="#ffffff"/>

  <text x="1050" y="60" text-anchor="middle" class="title">统一商品供给与运营治理平台架构图</text>
  <text x="1050" y="95" text-anchor="middle" class="subtitle">目标：统一 5 类供给入口，隔离未发布数据，按版本化事务发布，并通过 Outbox、DLQ、补偿与质量巡检形成治理闭环</text>

  <rect x="30" y="150" width="70" height="540" rx="12" fill="#eff6ff" stroke="#93c5fd" stroke-width="2"/>
  <text x="65" y="290" text-anchor="middle" class="section-label">1.</text>
  <text x="65" y="332" text-anchor="middle" class="section-label">统一</text>
  <text x="65" y="374" text-anchor="middle" class="section-label">平台</text>
  <text x="65" y="416" text-anchor="middle" class="section-label">主链路</text>

  <rect x="110" y="150" width="1640" height="540" rx="16" fill="#f8fafc" stroke="#cbd5e1" stroke-width="2"/>

  <rect x="130" y="185" width="250" height="455" rx="14" fill="#eff6ff" stroke="#93c5fd" stroke-width="2"/>
  <rect x="396" y="185" width="250" height="455" rx="14" fill="#f8fafc" stroke="#93c5fd" stroke-width="2"/>
  <rect x="662" y="185" width="250" height="455" rx="14" fill="#f0fdf4" stroke="#86efac" stroke-width="2"/>
  <rect x="928" y="185" width="250" height="455" rx="14" fill="#fff7ed" stroke="#fdba74" stroke-width="2"/>
  <rect x="1194" y="185" width="250" height="455" rx="14" fill="#faf5ff" stroke="#c4b5fd" stroke-width="2"/>
  <rect x="1460" y="185" width="270" height="455" rx="14" fill="#fff1f2" stroke="#fda4af" stroke-width="2"/>

  <text x="255" y="225" text-anchor="middle" class="col-title">1. 供给入口层</text>
  <text x="521" y="225" text-anchor="middle" class="col-title">2. 接入与暂存层</text>
  <text x="787" y="225" text-anchor="middle" class="col-title">3. 任务编排与标准化</text>
  <text x="1053" y="225" text-anchor="middle" class="col-title">4. 校验与审核层</text>
  <text x="1319" y="225" text-anchor="middle" class="col-title">5. 发布与集成层</text>
  <text x="1595" y="225" text-anchor="middle" class="col-title">6. 应用消费层</text>

  <rect x="148" y="248" width="214" height="76" rx="10" fill="#ffffff" stroke="#93c5fd" stroke-width="2"/>
  <text x="255" y="276" text-anchor="middle" class="box-title">人工创建 / 运营编辑</text>
  <text x="255" y="298" text-anchor="middle" class="box-body">
    <tspan x="255" dy="0">单品建品、标题图片、类目价格、上下架</tspan>
    <tspan x="255" dy="18">运营和商家入口共享治理框架</tspan>
  </text>

  <rect x="148" y="340" width="214" height="76" rx="10" fill="#ffffff" stroke="#93c5fd" stroke-width="2"/>
  <text x="255" y="368" text-anchor="middle" class="box-title">批量导入</text>
  <text x="255" y="390" text-anchor="middle" class="box-body">
    <tspan x="255" dy="0">Excel / CSV / 模板版本 / OSS 文件</tspan>
    <tspan x="255" dy="18">流式解析，行级错误文件可回传</tspan>
  </text>

  <rect x="148" y="432" width="214" height="76" rx="10" fill="#ffffff" stroke="#93c5fd" stroke-width="2"/>
  <text x="255" y="460" text-anchor="middle" class="box-title">库存创建 / 修改</text>
  <text x="255" y="482" text-anchor="middle" class="box-body">
    <tspan x="255" dy="0">补货、券码导入、生码、锁库存</tspan>
    <tspan x="255" dy="18">门店库存、日期库存、库存规则变更</tspan>
  </text>

  <rect x="148" y="524" width="214" height="76" rx="10" fill="#ffffff" stroke="#93c5fd" stroke-width="2"/>
  <text x="255" y="552" text-anchor="middle" class="box-title">供应商同步</text>
  <text x="255" y="574" text-anchor="middle" class="box-body">
    <tspan x="255" dy="0">FULL / INCREMENTAL / PUSH / REFRESH</tspan>
    <tspan x="255" dy="18">外部供给进入统一治理控制面</tspan>
  </text>

  <rect x="414" y="248" width="214" height="82" rx="10" fill="#ffffff" stroke="#93c5fd" stroke-width="2"/>
  <text x="521" y="276" text-anchor="middle" class="box-title">统一供给网关</text>
  <text x="521" y="300" text-anchor="middle" class="box-body">
    <tspan x="521" dy="0">Portal / API / MQ / Cron</tspan>
    <tspan x="521" dy="18">鉴权、限流、幂等、TraceID、source_type</tspan>
  </text>

  <rect x="414" y="350" width="214" height="92" rx="10" fill="#ffffff" stroke="#93c5fd" stroke-width="2"/>
  <text x="521" y="378" text-anchor="middle" class="box-title">Draft / Staging</text>
  <text x="521" y="402" text-anchor="middle" class="box-body">
    <tspan x="521" dy="0">草稿、暂存快照、payload hash</tspan>
    <tspan x="521" dy="18">未校验、未审核、未发布数据不入正式表</tspan>
  </text>

  <rect x="414" y="462" width="214" height="96" rx="10" fill="#ffffff" stroke="#93c5fd" stroke-width="2"/>
  <text x="521" y="490" text-anchor="middle" class="box-title">Supply Task / Task Item</text>
  <text x="521" y="514" text-anchor="middle" class="box-body">
    <tspan x="521" dy="0">task_type 路由、execution_mode、进度</tspan>
    <tspan x="521" dy="18">行级状态、error_file_ref、operator、trigger_id</tspan>
  </text>

  <rect x="680" y="248" width="214" height="82" rx="10" fill="#ffffff" stroke="#86efac" stroke-width="2"/>
  <text x="787" y="276" text-anchor="middle" class="box-title">类目模板 / 能力矩阵</text>
  <text x="787" y="300" text-anchor="middle" class="box-body">
    <tspan x="787" dy="0">Schema 驱动表单、字段约束、必填对象</tspan>
    <tspan x="787" dy="18">避免多品类 if-else 爆炸</tspan>
  </text>

  <rect x="680" y="350" width="214" height="92" rx="10" fill="#ffffff" stroke="#86efac" stroke-width="2"/>
  <text x="787" y="378" text-anchor="middle" class="box-title">标准化映射</text>
  <text x="787" y="402" text-anchor="middle" class="box-body">
    <tspan x="787" dy="0">Resource / SPU / SKU / Offer / Rule</tspan>
    <tspan x="787" dy="18">统一资源、商品、库存、履约、退款模型</tspan>
  </text>

  <rect x="680" y="462" width="214" height="96" rx="10" fill="#ffffff" stroke="#86efac" stroke-width="2"/>
  <text x="787" y="490" text-anchor="middle" class="box-title">库存与规则编排</text>
  <text x="787" y="514" text-anchor="middle" class="box-body">
    <tspan x="787" dy="0">Stock Config、Sellable、Fulfillment、Refund</tspan>
    <tspan x="787" dy="18">把供给动作编排成统一发布对象</tspan>
  </text>

  <rect x="946" y="248" width="214" height="82" rx="10" fill="#ffffff" stroke="#fdba74" stroke-width="2"/>
  <text x="1053" y="276" text-anchor="middle" class="box-title">质量校验</text>
  <text x="1053" y="300" text-anchor="middle" class="box-body">
    <tspan x="1053" dy="0">Schema、主数据、交易契约、可售完整性</tspan>
    <tspan x="1053" dy="18">价格异常、无库存、无履约规则提前阻断</tspan>
  </text>

  <rect x="946" y="350" width="214" height="92" rx="10" fill="#ffffff" stroke="#fdba74" stroke-width="2"/>
  <text x="1053" y="378" text-anchor="middle" class="box-title">Diff 与风险评分</text>
  <text x="1053" y="402" text-anchor="middle" class="box-body">
    <tspan x="1053" dy="0">字段主导权、保护期、版本锁、敏感字段识别</tspan>
    <tspan x="1053" dy="18">防止供应商覆盖运营修正和误操作放大</tspan>
  </text>

  <rect x="946" y="462" width="214" height="96" rx="10" fill="#ffffff" stroke="#fdba74" stroke-width="2"/>
  <text x="1053" y="490" text-anchor="middle" class="box-title">审核决策</text>
  <text x="1053" y="514" text-anchor="middle" class="box-body">
    <tspan x="1053" dy="0">低风险自动发布，中风险规则阻断</tspan>
    <tspan x="1053" dy="18">高风险强审、双人复核、灰度发布</tspan>
  </text>

  <rect x="1212" y="248" width="214" height="82" rx="10" fill="#ffffff" stroke="#c4b5fd" stroke-width="2"/>
  <text x="1319" y="276" text-anchor="middle" class="box-title">发布事务</text>
  <text x="1319" y="300" text-anchor="middle" class="box-body">
    <tspan x="1319" dy="0">正式商品表、发布版本、完整快照同事务提交</tspan>
    <tspan x="1319" dy="18">Draft / Staging 仅在发布点进入正式模型</tspan>
  </text>

  <rect x="1212" y="350" width="214" height="92" rx="10" fill="#ffffff" stroke="#c4b5fd" stroke-width="2"/>
  <text x="1319" y="378" text-anchor="middle" class="box-title">Outbox 事件</text>
  <text x="1319" y="402" text-anchor="middle" class="box-body">
    <tspan x="1319" dy="0">product_outbox_event 与正式表同事务</tspan>
    <tspan x="1319" dy="18">异步投递搜索、缓存、计价、营销、数据平台</tspan>
  </text>

  <rect x="1212" y="462" width="214" height="96" rx="10" fill="#ffffff" stroke="#c4b5fd" stroke-width="2"/>
  <text x="1319" y="490" text-anchor="middle" class="box-title">营销 / 库存协同</text>
  <text x="1319" y="514" text-anchor="middle" class="box-body">
    <tspan x="1319" dy="0">Eligibility Event、Inventory Command</tspan>
    <tspan x="1319" dy="18">活动配置、库存命令与供给发布解耦协同</tspan>
  </text>

  <rect x="1478" y="248" width="234" height="82" rx="10" fill="#ffffff" stroke="#fda4af" stroke-width="2"/>
  <text x="1595" y="276" text-anchor="middle" class="box-title">运营控制台</text>
  <text x="1595" y="300" text-anchor="middle" class="box-body">
    <tspan x="1595" dy="0">任务进度、失败原因、驳回意见、重新投递</tspan>
    <tspan x="1595" dy="18">运营看得见、修得动、能追责</tspan>
  </text>

  <rect x="1478" y="350" width="234" height="92" rx="10" fill="#ffffff" stroke="#fda4af" stroke-width="2"/>
  <text x="1595" y="378" text-anchor="middle" class="box-title">质量治理台</text>
  <text x="1595" y="402" text-anchor="middle" class="box-body">
    <tspan x="1595" dy="0">缺图 / 缺价 / 无库存 / 无履约规则</tspan>
    <tspan x="1595" dy="18">质量分、自动下架建议、巡检报表</tspan>
  </text>

  <rect x="1478" y="462" width="234" height="96" rx="10" fill="#ffffff" stroke="#fda4af" stroke-width="2"/>
  <text x="1595" y="490" text-anchor="middle" class="box-title">审计与下游消费</text>
  <text x="1595" y="514" text-anchor="middle" class="box-body">
    <tspan x="1595" dy="0">Diff、审核记录、publish_version、快照</tspan>
    <tspan x="1595" dy="18">商品中心、搜索、计价、营销、订单快照读取</tspan>
  </text>

  <line x1="380" y1="302" x2="396" y2="302" stroke="#2563eb" stroke-width="3" marker-end="url(#arrow-blue)"/>
  <line x1="646" y1="302" x2="662" y2="302" stroke="#2563eb" stroke-width="3" marker-end="url(#arrow-blue)"/>
  <line x1="912" y1="302" x2="928" y2="302" stroke="#2563eb" stroke-width="3" marker-end="url(#arrow-blue)"/>
  <line x1="1178" y1="302" x2="1194" y2="302" stroke="#2563eb" stroke-width="3" marker-end="url(#arrow-blue)"/>
  <line x1="1444" y1="302" x2="1460" y2="302" stroke="#2563eb" stroke-width="3" marker-end="url(#arrow-blue)"/>

  <rect x="430" y="572" width="740" height="54" rx="12" fill="#ecfdf5" stroke="#34d399" stroke-width="2" stroke-dasharray="8 8"/>
  <text x="800" y="605" text-anchor="middle" class="box-title" fill="#047857">供应商同步专项执行面：supplier_sync_batch → checkpoint → raw snapshot → normalize → diff → product_supply_task → 审核 / 发布</text>

  <rect x="30" y="730" width="70" height="170" rx="12" fill="#f8fafc" stroke="#cbd5e1" stroke-width="2"/>
  <text x="65" y="795" text-anchor="middle" class="section-label">2.</text>
  <text x="65" y="837" text-anchor="middle" class="section-label">治理</text>
  <text x="65" y="879" text-anchor="middle" class="section-label">体系</text>
  <rect x="110" y="730" width="1640" height="170" rx="16" fill="#fffaf0" stroke="#fdba74" stroke-width="2"/>

  <rect x="130" y="760" width="304" height="110" rx="10" fill="#ffffff" stroke="#fdba74" stroke-width="2"/>
  <text x="282" y="790" text-anchor="middle" class="box-title">数据标准治理</text>
  <text x="282" y="814" text-anchor="middle" class="box-body">
    <tspan x="282" dy="0">类目模板、属性枚举、主数据映射、供应商码映射</tspan>
    <tspan x="282" dy="18">保证多来源数据能进入统一平台模型</tspan>
  </text>

  <rect x="450" y="760" width="304" height="110" rx="10" fill="#ffffff" stroke="#fdba74" stroke-width="2"/>
  <text x="602" y="790" text-anchor="middle" class="box-title">冲突与版本治理</text>
  <text x="602" y="814" text-anchor="middle" class="box-body">
    <tspan x="602" dy="0">字段主导权、保护期、版本锁、publish snapshot</tspan>
    <tspan x="602" dy="18">避免供应商同步覆盖运营修正与历史版本混乱</tspan>
  </text>

  <rect x="770" y="760" width="304" height="110" rx="10" fill="#ffffff" stroke="#fdba74" stroke-width="2"/>
  <text x="922" y="790" text-anchor="middle" class="box-title">质量与审核治理</text>
  <text x="922" y="814" text-anchor="middle" class="box-body">
    <tspan x="922" dy="0">风险规则、质量分、自动下架、审核策略、灰度</tspan>
    <tspan x="922" dy="18">把质量问题前置，不把脏数据推给交易链路</tspan>
  </text>

  <rect x="1090" y="760" width="304" height="110" rx="10" fill="#ffffff" stroke="#fdba74" stroke-width="2"/>
  <text x="1242" y="790" text-anchor="middle" class="box-title">一致性与补偿治理</text>
  <text x="1242" y="814" text-anchor="middle" class="box-body">
    <tspan x="1242" dy="0">Outbox、DLQ、补偿任务、回放、重试、幂等</tspan>
    <tspan x="1242" dy="18">下游失败可补偿，治理问题有闭环入口</tspan>
  </text>

  <rect x="1410" y="760" width="320" height="110" rx="10" fill="#ffffff" stroke="#fdba74" stroke-width="2"/>
  <text x="1570" y="790" text-anchor="middle" class="box-title">审计与指标资产</text>
  <text x="1570" y="814" text-anchor="middle" class="box-body">
    <tspan x="1570" dy="0">TraceID、Change Log、Review Log、质量报表、SLA</tspan>
    <tspan x="1570" dy="18">每次发布可追溯、每类问题可量化、可持续优化</tspan>
  </text>

  <rect x="30" y="930" width="70" height="135" rx="12" fill="#eff6ff" stroke="#93c5fd" stroke-width="2"/>
  <text x="65" y="980" text-anchor="middle" class="section-label">3.</text>
  <text x="65" y="1022" text-anchor="middle" class="section-label">基础</text>
  <text x="65" y="1054" text-anchor="middle" class="section-label">设施</text>
  <rect x="110" y="930" width="1640" height="135" rx="16" fill="#f8fafc" stroke="#93c5fd" stroke-width="2"/>

  <rect x="130" y="958" width="250" height="80" rx="10" fill="#ffffff" stroke="#93c5fd" stroke-width="2"/>
  <text x="255" y="988" text-anchor="middle" class="box-title">MySQL / 发布快照</text>
  <text x="255" y="1012" text-anchor="middle" class="box-body">draft、task、staging、publish snapshot、audit log</text>

  <rect x="396" y="958" width="250" height="80" rx="10" fill="#ffffff" stroke="#93c5fd" stroke-width="2"/>
  <text x="521" y="988" text-anchor="middle" class="box-title">OSS / Object Store</text>
  <text x="521" y="1012" text-anchor="middle" class="box-body">导入文件、raw snapshot、错误文件、回放证据</text>

  <rect x="662" y="958" width="250" height="80" rx="10" fill="#ffffff" stroke="#93c5fd" stroke-width="2"/>
  <text x="787" y="988" text-anchor="middle" class="box-title">Scheduler / Worker</text>
  <text x="787" y="1012" text-anchor="middle" class="box-body">任务调度、异步处理、watchdog、批量分片</text>

  <rect x="928" y="958" width="250" height="80" rx="10" fill="#ffffff" stroke="#93c5fd" stroke-width="2"/>
  <text x="1053" y="988" text-anchor="middle" class="box-title">Kafka / MQ / Outbox</text>
  <text x="1053" y="1012" text-anchor="middle" class="box-body">可靠事件发布、异步协同、DLQ 总线</text>

  <rect x="1194" y="958" width="250" height="80" rx="10" fill="#ffffff" stroke="#93c5fd" stroke-width="2"/>
  <text x="1319" y="988" text-anchor="middle" class="box-title">Redis / Search</text>
  <text x="1319" y="1012" text-anchor="middle" class="box-body">缓存失效、查询可见性、索引刷新、读模型加速</text>

  <rect x="1460" y="958" width="270" height="80" rx="10" fill="#ffffff" stroke="#93c5fd" stroke-width="2"/>
  <text x="1595" y="988" text-anchor="middle" class="box-title">Metrics / Trace / BI</text>
  <text x="1595" y="1012" text-anchor="middle" class="box-body">Prometheus、Grafana、Tracing、质量与运营报表</text>

  <rect x="30" y="1085" width="70" height="135" rx="12" fill="#ecfdf5" stroke="#86efac" stroke-width="2"/>
  <text x="65" y="1135" text-anchor="middle" class="section-label">4.</text>
  <text x="65" y="1177" text-anchor="middle" class="section-label">运行</text>
  <text x="65" y="1209" text-anchor="middle" class="section-label">保障</text>
  <rect x="110" y="1085" width="1640" height="135" rx="16" fill="#f0fdf4" stroke="#86efac" stroke-width="2"/>

  <rect x="130" y="1113" width="250" height="80" rx="10" fill="#ffffff" stroke="#86efac" stroke-width="2"/>
  <text x="255" y="1143" text-anchor="middle" class="box-title">Lease / Heartbeat / Checkpoint</text>
  <text x="255" y="1167" text-anchor="middle" class="box-body">长任务可恢复，Worker 续租，失败后从水位继续</text>

  <rect x="396" y="1113" width="250" height="80" rx="10" fill="#ffffff" stroke="#86efac" stroke-width="2"/>
  <text x="521" y="1143" text-anchor="middle" class="box-title">限流 / 熔断 / 退避</text>
  <text x="521" y="1167" text-anchor="middle" class="box-body">保护供应商接口与下游系统，防止雪崩与连锁失败</text>

  <rect x="662" y="1113" width="250" height="80" rx="10" fill="#ffffff" stroke="#86efac" stroke-width="2"/>
  <text x="787" y="1143" text-anchor="middle" class="box-title">幂等 / 唯一索引 / 乐观锁</text>
  <text x="787" y="1167" text-anchor="middle" class="box-body">防重复创建、重复发布、并发覆盖与重放污染</text>

  <rect x="928" y="1113" width="250" height="80" rx="10" fill="#ffffff" stroke="#86efac" stroke-width="2"/>
  <text x="1053" y="1143" text-anchor="middle" class="box-title">DLQ / 人工修复 / 回放</text>
  <text x="1053" y="1167" text-anchor="middle" class="box-body">失败有归宿，修复有入口，回放有证据，重投有控制</text>

  <rect x="1194" y="1113" width="250" height="80" rx="10" fill="#ffffff" stroke="#86efac" stroke-width="2"/>
  <text x="1319" y="1143" text-anchor="middle" class="box-title">RBAC / 审计 / 变更复核</text>
  <text x="1319" y="1167" text-anchor="middle" class="box-body">高风险操作留痕并复核，保障运营治理与合规</text>

  <rect x="1460" y="1113" width="270" height="80" rx="10" fill="#ffffff" stroke="#86efac" stroke-width="2"/>
  <text x="1595" y="1143" text-anchor="middle" class="box-title">灰度 / 回滚 / Backfill</text>
  <text x="1595" y="1167" text-anchor="middle" class="box-body">发布可逐步放量，异常可回滚，历史数据可补齐</text>

  <rect x="1790" y="730" width="280" height="490" rx="16" fill="#f0fdf4" stroke="#86efac" stroke-width="2"/>
  <text x="1930" y="775" text-anchor="middle" class="side-title">业务价值</text>
  <text x="1815" y="825" class="side-body">
    <tspan x="1815" dy="0">1. 五类入口统一到一个</tspan>
    <tspan x="1832" dy="19">任务与发布框架</tspan>
    <tspan x="1815" dy="32">2. Draft / Staging 隔离未发布数据</tspan>
    <tspan x="1832" dy="19">避免污染线上</tspan>
    <tspan x="1815" dy="32">3. 供应商同步与运营编辑通过</tspan>
    <tspan x="1832" dy="19">字段主导权解冲突</tspan>
    <tspan x="1815" dy="32">4. 发布版本、快照、Outbox</tspan>
    <tspan x="1832" dy="19">保障一致性与可追溯</tspan>
    <tspan x="1815" dy="32">5. DLQ、补偿、质量巡检让失败</tspan>
    <tspan x="1832" dy="19">可恢复、可运营</tspan>
    <tspan x="1815" dy="32">6. 运营能看到进度、原因、风险</tspan>
    <tspan x="1832" dy="19">结果与报表</tspan>
  </text>

  <line x1="255" y1="640" x2="255" y2="730" stroke="#ea580c" stroke-width="2.5" stroke-dasharray="8 8" marker-end="url(#arrow-orange)"/>
  <line x1="521" y1="640" x2="521" y2="730" stroke="#ea580c" stroke-width="2.5" stroke-dasharray="8 8" marker-end="url(#arrow-orange)"/>
  <line x1="787" y1="640" x2="787" y2="730" stroke="#ea580c" stroke-width="2.5" stroke-dasharray="8 8" marker-end="url(#arrow-orange)"/>
  <line x1="1053" y1="640" x2="1053" y2="730" stroke="#ea580c" stroke-width="2.5" stroke-dasharray="8 8" marker-end="url(#arrow-orange)"/>
  <line x1="1319" y1="640" x2="1319" y2="730" stroke="#ea580c" stroke-width="2.5" stroke-dasharray="8 8" marker-end="url(#arrow-orange)"/>
  <line x1="1595" y1="640" x2="1595" y2="730" stroke="#ea580c" stroke-width="2.5" stroke-dasharray="8 8" marker-end="url(#arrow-orange)"/>

  <text x="110" y="1270" class="note">说明：蓝色箭头表示统一供给主链路；绿色虚线框表示供应商同步专项执行面；橙色箭头表示治理能力向基础设施与运行保障下沉。</text>
  <text x="110" y="1302" class="note">核心判断：供给平台负责流程治理与发布编排，商品中心负责正式模型，库存 / 搜索 / 计价 / 营销 / 订单通过事件和快照协同，而不是被运营后台直接耦合写入。</text>

  <rect x="110" y="1320" width="18" height="8" rx="4" fill="#2563eb"/>
  <text x="138" y="1328" class="legend" fill="#2563eb">主处理链路</text>
  <rect x="285" y="1320" width="18" height="8" rx="4" fill="#059669"/>
  <text x="313" y="1328" class="legend" fill="#059669">供应商同步专项链路</text>
  <rect x="530" y="1320" width="18" height="8" rx="4" fill="#ea580c"/>
  <text x="558" y="1328" class="legend" fill="#ea580c">治理能力与闭环支撑</text>
</svg>
